<?xml version="1.0" encoding="UTF-8" standalone="no"?>
<!DOCTYPE svg PUBLIC "-//W3C//DTD SVG 1.1//EN" "http://www.w3.org/Graphics/SVG/1.1/DTD/svg11.dtd">
<svg xmlns="http://www.w3.org/2000/svg" xmlns:xlink="http://www.w3.org/1999/xlink" version="1.1" width="100%" height="100%" viewBox="0 0 1000 1000">
<g enable-background="new">
<g id="Layer-1" data-name="Livello 1">
<clipPath id="cp0">
<path transform="matrix(1,0,0,-1,0,1000)" d="M 0 1000 L 1000 1000 L 1000 0 L 0 0 Z "/>
</clipPath>
<g clip-path="url(#cp0)">
<path transform="matrix(1,0,0,-1,830.7158,398.27778)" d="M 0 0 L -39.697 0 L -58.122 97.147 L 32.419 97.431 Z M -73.425 -220.678 L -102.93 -220.678 L -120.447 -128.32 L -42.694 -128.32 Z M -521.497 -128.32 L -434.699 -128.32 L -417.182 -220.678 L -501.587 -220.678 Z M -477.214 95.831 L -459.038 0 L -549.159 0 L -569.754 95.54 Z M -144.786 0 L -163.148 96.817 L -79.559 97.08 L -61.146 0 Z M -224.291 -107.245 L -240.634 -21.075 L -162.238 -21.075 L -145.895 -107.245 Z M -262.084 -21.075 L -245.74 -107.245 L -322.621 -107.245 L -338.964 -21.075 Z M -184.586 96.75 L -166.235 0 L -244.632 0 L -262.935 96.503 Z M -284.372 96.436 L -266.081 0 L -342.962 0 L -361.207 96.195 Z M -382.644 96.127 L -364.412 0 L -437.588 0 L -455.776 95.898 Z M -433.59 -21.075 L -360.414 -21.075 L -344.071 -107.245 L -417.247 -107.245 Z M -544.615 -21.075 L -455.04 -21.075 L -438.697 -107.245 L -526.04 -107.245 Z M -395.732 -220.678 L -413.25 -128.32 L -340.073 -128.32 L -322.557 -220.678 Z M -301.106 -220.678 L -318.624 -128.32 L -241.743 -128.32 L -224.226 -220.678 Z M -202.775 -220.678 L -220.293 -128.32 L -141.897 -128.32 L -124.38 -220.678 Z M -40.807 -107.245 L -124.445 -107.245 L -140.788 -21.075 L -57.149 -21.075 Z M -25.284 -75.993 L -35.699 -21.075 L -7.012 -21.075 Z M 55.585 114.191 C 53.605 116.93 50.428 118.552 47.048 118.552 L 47.015 118.552 L -574.294 116.601 L -594.941 212.363 C -595.987 217.216 -600.276 220.68 -605.24 220.68 L -709.433 220.68 C -715.253 220.68 -719.971 215.963 -719.971 210.143 C -719.971 204.322 -715.253 199.604 -709.433 199.604 L -613.749 199.604 L -593.143 104.023 C -593.114 103.877 -593.085 103.731 -593.052 103.587 L -544.876 -119.892 C -544.874 -119.902 -544.872 -119.914 -544.87 -119.923 L -520.399 -233.436 C -519.349 -238.29 -515.06 -241.753 -510.096 -241.753 L -405.94 -241.753 C -405.449 -241.825 -404.953 -241.885 -404.446 -241.885 C -403.989 -241.885 -403.522 -241.815 -403.057 -241.753 L -311.314 -241.753 C -310.823 -241.825 -310.327 -241.885 -309.82 -241.885 C -309.363 -241.885 -308.896 -241.815 -308.432 -241.753 L -212.984 -241.753 C -212.492 -241.825 -211.997 -241.885 -211.49 -241.885 C -211.032 -241.885 -210.565 -241.815 -210.101 -241.753 L -113.139 -241.753 C -112.646 -241.825 -112.151 -241.885 -111.645 -241.885 C -111.187 -241.885 -110.721 -241.815 -110.255 -241.753 L -65.825 -241.753 C -61.289 -241.753 -57.26 -238.849 -55.827 -234.542 L 57.047 104.688 C 58.117 107.905 57.573 111.443 55.585 114.191 " fill="#231f20"/>
<path transform="matrix(1,0,0,-1,402.436,751.4268)" d="M 0 0 C -9.851 -27.061 -40.83 -49.923 -67.648 -49.923 C -78.634 -49.923 -87.398 -46.045 -92.329 -39.002 C -97.829 -31.15 -98.401 -19.561 -93.906 -7.208 C -84.055 19.851 -53.076 42.713 -26.258 42.713 C -15.271 42.713 -6.508 38.835 -1.577 31.792 C 3.923 23.94 4.495 12.353 0 0 M -26.258 63.788 C -62.276 63.788 -100.689 35.769 -113.713 0 C -120.592 -18.906 -119.089 -37.528 -109.593 -51.092 C -100.603 -63.929 -85.706 -70.998 -67.648 -70.998 C -31.63 -70.998 6.784 -42.979 19.808 -7.208 C 26.686 11.696 25.184 30.318 15.687 43.88 C 6.697 56.719 -8.2 63.788 -26.258 63.788 " fill="#231f20"/>
<path transform="matrix(1,0,0,-1,776.4814,751.4268)" d="M 0 0 C -9.846 -27.061 -40.821 -49.923 -67.644 -49.923 C -78.63 -49.923 -87.397 -46.043 -92.329 -39 C -97.824 -31.148 -98.4 -19.561 -93.901 -7.208 C -84.055 19.853 -53.075 42.713 -26.258 42.713 C -15.271 42.713 -6.504 38.833 -1.572 31.79 C 3.928 23.94 4.499 12.353 0 0 M -26.258 63.788 C -62.279 63.788 -100.689 35.769 -113.709 0 C -120.587 -18.904 -119.089 -37.524 -109.593 -51.088 C -100.603 -63.927 -85.706 -70.998 -67.644 -70.998 C -31.621 -70.998 6.788 -42.979 19.808 -7.208 C 26.687 11.694 25.188 30.316 15.691 43.878 C 6.701 56.719 -8.195 63.788 -26.258 63.788 " fill="#231f20"/>
</g>
</g>
</g>
</svg>
