<?xml version="1.0" encoding="UTF-8" standalone="no"?>
<!DOCTYPE svg PUBLIC "-//W3C//DTD SVG 1.1//EN" "http://www.w3.org/Graphics/SVG/1.1/DTD/svg11.dtd">
<svg xmlns="http://www.w3.org/2000/svg" xmlns:xlink="http://www.w3.org/1999/xlink" version="1.1" width="1000em" height="1000em" viewBox="0 0 1000 1000">
<g enable-background="new">
<g id="Layer-1" data-name="Livello 1">
<clipPath id="cp0">
<path transform="matrix(1,0,0,-1,0,1000)" d="M 0 0 L 1000 0 L 1000 1000 L 0 1000 Z "/>
</clipPath>
<g clip-path="url(#cp0)">
<path transform="matrix(1,0,0,-1,671.647,291.1093)" d="M 0 0 C 59.027 -60.895 107.848 -137.378 113.503 -151.519 C 115.581 -156.714 120.597 -160.007 126.034 -160.007 C 126.825 -160.007 127.632 -159.939 128.433 -159.794 C 134.746 -158.657 139.383 -153.238 139.535 -146.828 C 140.921 -88.704 157.381 -25.495 179.463 33.698 C 235.438 8.603 274.545 -47.604 274.545 -112.812 C 274.545 -201.316 202.544 -273.317 114.041 -273.317 C 25.537 -273.317 -46.464 -201.316 -46.464 -112.812 C -46.464 -68.872 -28.703 -29.012 0 0 M 153.726 42.719 C 136.238 -4.142 122.112 -53.962 115.887 -102.902 C 94.363 -70.15 59.838 -23.292 20.534 17.518 C 46.887 36.479 79.169 47.692 114.041 47.692 C 127.733 47.692 141.028 45.96 153.726 42.719 M -632.589 -195.981 L -53.949 -195.981 C -23.242 -257.751 40.506 -300.319 114.041 -300.319 C 217.434 -300.319 301.548 -216.205 301.548 -112.812 C 301.548 -36.164 255.299 29.852 189.26 58.895 C 228.048 154.344 278.556 235.245 298.616 260.493 C 303.258 266.332 302.281 274.826 296.443 279.465 C 290.621 284.098 282.114 283.128 277.477 277.292 C 262.386 258.296 206.235 172.863 163.579 68.004 C 147.788 72.336 131.19 74.695 114.041 74.695 C 71.667 74.695 32.545 60.55 1.11 36.756 C -12.896 49.957 -27.296 62.103 -41.797 72.253 C -47.904 76.531 -56.321 75.043 -60.598 68.936 C -64.876 62.828 -63.389 54.409 -57.281 50.135 C -44.507 41.192 -31.731 30.563 -19.236 18.925 C -52.739 -14.965 -73.467 -61.508 -73.467 -112.812 C -73.467 -132.372 -70.446 -151.237 -64.864 -168.978 L -632.589 -168.978 C -640.045 -168.978 -646.09 -175.022 -646.09 -182.48 C -646.09 -189.937 -640.045 -195.981 -632.589 -195.981 " fill="#231f20"/>
<path transform="matrix(1,0,0,-1,959.6936,628.2735)" d="M 0 0 L -774.839 0 C -782.297 0 -788.341 -6.044 -788.341 -13.502 C -788.341 -20.96 -782.297 -27.003 -774.839 -27.003 L 0 -27.003 C 7.458 -27.003 13.502 -20.96 13.502 -13.502 C 13.502 -6.044 7.458 0 0 0 " fill="#231f20"/>
<path transform="matrix(1,0,0,-1,804.4002,809.9585)" d="M 0 0 C 0 7.458 -6.044 13.501 -13.502 13.501 L -765.341 13.501 C -772.799 13.501 -778.842 7.458 -778.842 0 C -778.842 -7.458 -772.799 -13.502 -765.341 -13.502 L -13.502 -13.502 C -6.044 -13.502 0 -7.458 0 0 " fill="#231f20"/>
<path transform="matrix(1,0,0,-1,959.6936,964.6432)" d="M 0 0 L -746.317 0 C -753.775 0 -759.818 -6.044 -759.818 -13.502 C -759.818 -20.96 -753.775 -27.003 -746.317 -27.003 L 0 -27.003 C 7.458 -27.003 13.502 -20.96 13.502 -13.502 C 13.502 -6.044 7.458 0 0 0 " fill="#231f20"/>
</g>
</g>
</g>
</svg>
