<?xml version="1.0" encoding="UTF-8" standalone="no"?>
<!DOCTYPE svg PUBLIC "-//W3C//DTD SVG 1.1//EN" "http://www.w3.org/Graphics/SVG/1.1/DTD/svg11.dtd">
<svg xmlns="http://www.w3.org/2000/svg" xmlns:xlink="http://www.w3.org/1999/xlink" version="1.1" width="2000em" height="2000em" viewBox="0 0 2000 2000">
<g enable-background="new">
<g id="Layer-1" data-name="Livello 1">
<clipPath id="cp0">
<path transform="matrix(1,0,0,-1,0,2000)" d="M 0 2000 L 2000 2000 L 2000 0 L 0 0 Z "/>
</clipPath>
<g clip-path="url(#cp0)">
<path transform="matrix(1,0,0,-1,281.999,853.9359)" d="M 0 0 L -50.606 43.761 C -51.187 44.263 -52.064 44.2 -52.565 43.619 C -52.96 43.161 -53.399 42.649 -53.698 42.294 C -55.043 40.691 -56.36 39.082 -57.663 37.458 C -58.959 35.835 -60.234 34.198 -61.481 32.539 C -62.735 30.888 -63.961 29.216 -65.16 27.53 C -65.592 26.93 -66.017 26.324 -66.442 25.711 C -67.696 23.921 -68.922 22.109 -70.12 20.291 C -71.075 18.841 -72.016 17.378 -72.928 15.908 C -73.353 15.232 -73.771 14.549 -74.189 13.86 C -74.607 13.177 -75.018 12.487 -75.43 11.797 C -75.778 11.212 -76.119 10.627 -76.468 10.035 C -76.809 9.449 -77.151 8.864 -77.485 8.272 C -77.52 8.202 -77.562 8.139 -77.603 8.077 C -77.624 8.035 -77.645 7.993 -77.673 7.951 C -78.405 6.669 -79.122 5.387 -79.819 4.091 C -80.181 3.422 -80.544 2.754 -80.906 2.078 C -81.707 .566 -82.495 -.953 -83.268 -2.486 C -85.602 -7.084 -87.762 -11.766 -89.768 -16.525 C -89.978 -17.02 -90.187 -17.508 -90.389 -18.002 C -90.751 -18.873 -91.106 -19.744 -91.455 -20.615 C -91.984 -21.939 -92.507 -23.27 -93.008 -24.6 C -93.35 -25.499 -93.691 -26.405 -94.019 -27.311 C -94.353 -28.217 -94.674 -29.122 -94.994 -30.028 C -95.308 -30.941 -95.621 -31.854 -95.935 -32.773 C -96.262 -33.756 -96.583 -34.738 -96.903 -35.727 C -97.395 -37.263 -97.87 -38.803 -98.332 -40.35 C -98.552 -41.088 -98.126 -41.867 -97.387 -42.083 L -33.059 -60.853 C -32.383 -61.051 -31.666 -60.71 -31.391 -60.061 C -28.54 -53.318 -13.435 -18.382 .17 -1.924 C .648 -1.346 .567 -.491 0 0 " fill="#231f20"/>
<path transform="matrix(1,0,0,-1,384.942,800.12527)" d="M 0 0 C 1.93 .244 3.86 .453 5.804 .62 C 6.772 .711 7.748 .787 8.723 .857 C 9.692 .927 10.667 .989 11.643 1.038 C 12.562 1.087 13.475 1.129 14.388 1.164 C 14.541 1.171 14.687 1.178 14.834 1.178 C 15.649 1.205 16.471 1.226 17.286 1.24 C 17.439 1.247 17.593 1.254 17.753 1.247 C 18.631 1.268 19.516 1.275 20.394 1.275 L 20.428 1.275 L 20.442 1.275 C 21.362 1.275 22.282 1.268 23.201 1.247 L 23.431 1.247 C 24.358 1.233 25.285 1.205 26.211 1.171 C 27.173 1.143 28.134 1.094 29.089 1.045 C 30.05 .996 31.005 .941 31.966 .871 C 33.59 .76 35.206 .62 36.823 .453 C 37.359 .404 37.896 .348 38.432 .286 C 40.035 .112 41.637 -.091 43.233 -.313 C 45.142 -.585 47.051 -.885 48.946 -1.219 C 49.657 -1.345 50.367 -1.477 51.071 -1.609 C 54.904 -2.35 61.624 -4.06 64.442 -4.789 C 65.169 -4.977 65.912 -4.553 66.122 -3.832 L 84.822 60.415 C 85.037 61.153 84.612 61.926 83.873 62.137 C 83.378 62.279 82.884 62.418 82.39 62.553 C 79.916 63.243 77.429 63.884 74.934 64.49 C 73.276 64.888 71.611 65.271 69.939 65.64 L 69.925 65.64 C 68.88 65.87 67.835 66.086 66.783 66.302 C 60.498 67.591 54.158 68.601 47.769 69.354 C 46.703 69.479 45.637 69.598 44.57 69.709 C 43.714 69.793 42.856 69.883 42 69.96 C 41.024 70.05 40.042 70.134 39.059 70.211 C 38.976 70.218 38.899 70.224 38.822 70.224 C 38.216 70.273 37.617 70.322 37.018 70.364 C 36.948 70.371 36.878 70.371 36.809 70.378 C 35.471 70.468 34.133 70.552 32.803 70.622 C 32.294 70.65 31.785 70.677 31.284 70.698 C 30.866 70.719 30.454 70.74 30.036 70.754 C 29.584 70.768 29.138 70.789 28.685 70.803 C 28.002 70.831 27.312 70.852 26.629 70.866 C 26.239 70.88 25.849 70.886 25.459 70.893 C 24.762 70.914 24.065 70.921 23.369 70.928 C 22.393 70.942 21.418 70.949 20.442 70.949 L 20.428 70.949 C 19.46 70.949 18.484 70.942 17.516 70.928 C 16.736 70.921 15.955 70.907 15.175 70.886 C 14.841 70.88 14.506 70.873 14.172 70.866 C 12.778 70.824 11.385 70.775 9.991 70.712 C 7.901 70.629 5.811 70.503 3.735 70.35 C -1.352 69.999 -6.415 69.473 -11.438 68.771 C -12.201 68.664 -12.731 67.953 -12.621 67.191 L -3.075 .98 C -2.966 .223 -2.265 -.3 -1.507 -.196 C -1.005 -.128 -.503 -.062 0 0 " fill="#231f20"/>
<path transform="matrix(1,0,0,-1,301.1589,836.92007)" d="M 0 0 C 1.219 1.024 2.453 2.034 3.693 3.031 C 4.313 3.526 4.94 4.013 5.567 4.501 C 7.072 5.657 8.598 6.8 10.138 7.908 C 11.517 8.897 12.911 9.866 14.318 10.813 C 15.482 11.594 16.659 12.36 17.837 13.113 C 19.021 13.865 20.212 14.597 21.411 15.314 C 22.86 16.178 24.316 17.021 25.786 17.837 C 25.793 17.837 25.8 17.844 25.807 17.85 C 27.096 18.568 28.399 19.265 29.709 19.955 C 37.452 23.971 52.724 29.499 57.159 31.077 C 57.853 31.324 58.23 32.07 58.021 32.777 L 39.091 96.988 C 38.872 97.729 38.092 98.147 37.353 97.924 C 37 97.818 36.646 97.71 36.293 97.599 C 35.84 97.46 35.387 97.321 34.935 97.181 C 34.203 96.951 33.471 96.722 32.74 96.485 C 31.813 96.178 30.887 95.878 29.967 95.565 C 29.117 95.279 28.267 94.987 27.424 94.68 C 26.595 94.394 25.772 94.102 24.95 93.795 C 24.044 93.468 23.139 93.133 22.24 92.792 C 20.77 92.234 19.307 91.656 17.85 91.071 C 16.798 90.646 15.746 90.214 14.701 89.775 C 14.527 89.698 14.346 89.629 14.165 89.552 C 13.099 89.099 12.033 88.639 10.981 88.172 C 10.138 87.803 9.301 87.427 8.465 87.044 C 7.392 86.563 6.326 86.068 5.26 85.567 C 4.487 85.204 3.721 84.835 2.961 84.459 C 2.097 84.048 1.24 83.623 .39 83.191 C -.209 82.891 -.801 82.592 -1.393 82.285 C -1.986 81.979 -2.585 81.672 -3.177 81.358 C -3.365 81.268 -3.553 81.163 -3.742 81.059 C -4.355 80.738 -4.968 80.418 -5.574 80.083 C -6.215 79.742 -6.856 79.394 -7.497 79.038 C -7.629 78.962 -7.755 78.892 -7.887 78.822 C -8.507 78.481 -9.12 78.132 -9.733 77.784 C -10.354 77.436 -10.967 77.087 -11.58 76.732 C -11.97 76.502 -12.36 76.272 -12.757 76.042 C -13.593 75.548 -14.423 75.06 -15.252 74.558 C -15.454 74.44 -15.656 74.321 -15.858 74.196 C -17.314 73.311 -18.756 72.412 -20.192 71.5 C -21.062 70.949 -21.926 70.385 -22.783 69.82 C -23.647 69.256 -24.504 68.678 -25.354 68.099 C -26.211 67.521 -27.061 66.936 -27.904 66.344 C -29.598 65.159 -31.277 63.961 -32.942 62.728 C -33.471 62.337 -34.001 61.94 -34.524 61.543 C -34.865 61.285 -35.199 61.027 -35.541 60.77 C -36.217 60.261 -36.892 59.739 -37.568 59.216 C -37.805 59.035 -38.035 58.847 -38.265 58.666 C -38.997 58.094 -39.721 57.523 -40.439 56.945 C -42.475 55.311 -44.491 53.637 -46.482 51.923 C -47.066 51.421 -47.127 50.536 -46.622 49.955 L -2.724 -.52 C -2.223 -1.096 -1.351 -1.157 -.772 -.66 C -.515 -.439 -.257 -.219 0 0 " fill="#231f20"/>
<path transform="matrix(1,0,0,-1,636.7301,960.0062)" d="M 0 0 C -.021 11.085 -.836 22.052 -2.397 32.865 L -2.39 32.865 C -2.536 33.882 -2.689 34.9 -2.857 35.91 C -2.933 36.412 -3.017 36.92 -3.1 37.422 C -3.135 37.645 -3.17 37.861 -3.212 38.077 C -3.296 38.585 -3.379 39.094 -3.47 39.603 C -3.567 40.146 -3.665 40.69 -3.762 41.233 C -3.797 41.442 -3.832 41.644 -3.874 41.853 C -3.964 42.327 -4.048 42.801 -4.139 43.275 C -4.32 44.222 -4.501 45.17 -4.696 46.11 C -4.877 46.981 -5.058 47.859 -5.246 48.73 C -5.421 49.545 -5.602 50.367 -5.79 51.182 C -5.999 52.102 -6.208 53.022 -6.431 53.942 C -6.668 54.91 -6.912 55.885 -7.162 56.854 C -7.385 57.746 -7.615 58.631 -7.859 59.522 C -8.103 60.449 -8.361 61.376 -8.619 62.296 C -8.87 63.187 -9.127 64.079 -9.392 64.971 C -9.58 65.591 -9.768 66.211 -9.956 66.831 C -10.186 67.598 -10.423 68.371 -10.66 69.131 C -10.765 69.458 -10.876 69.786 -10.981 70.113 C -11.183 70.747 -11.392 71.388 -11.601 72.022 C -11.768 72.531 -11.942 73.046 -12.116 73.555 C -12.402 74.419 -12.695 75.276 -13.001 76.133 C -13.44 77.38 -13.886 78.62 -14.346 79.853 C -14.645 80.655 -14.945 81.449 -15.252 82.243 C -15.398 82.633 -15.551 83.024 -15.704 83.414 C -16.053 84.306 -16.408 85.197 -16.764 86.089 C -17.314 87.462 -17.885 88.827 -18.471 90.186 C -18.693 90.723 -18.923 91.259 -19.16 91.796 C -19.481 92.541 -19.815 93.294 -20.15 94.039 C -20.414 94.638 -20.686 95.23 -20.958 95.823 C -21.348 96.687 -21.752 97.551 -22.163 98.415 C -22.205 98.491 -22.24 98.568 -22.275 98.645 C -22.93 100.017 -23.592 101.39 -24.274 102.755 C -25.02 104.246 -25.779 105.737 -26.56 107.214 C -26.992 108.037 -27.424 108.852 -27.87 109.667 C -28.308 110.482 -28.754 111.297 -29.207 112.105 C -29.611 112.83 -30.022 113.555 -30.441 114.272 C -30.852 114.997 -31.27 115.715 -31.695 116.432 C -32.113 117.15 -32.538 117.861 -32.97 118.578 C -33.116 118.829 -33.269 119.073 -33.423 119.324 C -33.98 120.243 -34.544 121.156 -35.116 122.069 C -35.687 122.989 -36.265 123.894 -36.851 124.8 C -36.885 124.863 -36.927 124.926 -36.969 124.988 C -39.951 129.594 -43.1 134.095 -46.403 138.484 C -49.712 142.874 -53.189 147.152 -56.819 151.318 L -56.805 151.332 C -57.481 152.112 -58.164 152.879 -58.854 153.652 C -60.212 155.185 -61.613 156.704 -63.034 158.202 C -63.633 158.836 -64.239 159.47 -64.846 160.097 C -65.8 161.1 -66.776 162.09 -67.758 163.072 C -84.898 180.212 -104.323 194.384 -125.678 205.323 C -126.403 205.692 -127.127 206.068 -127.859 206.43 C -128.639 206.82 -129.42 207.204 -130.2 207.587 C -131.057 208.012 -131.928 208.423 -132.792 208.834 C -133.3 209.078 -133.809 209.315 -134.318 209.552 C -135.014 209.872 -135.843 209.559 -136.164 208.862 L -163.908 147.911 C -164.208 147.256 -163.964 146.49 -163.337 146.134 C -157.819 142.992 -132.966 128.653 -121.755 118.341 C -121.741 118.32 -121.721 118.3 -121.7 118.286 C -120.836 117.484 -119.979 116.676 -119.129 115.861 C -118.697 115.443 -118.265 115.025 -117.833 114.6 C -117.366 114.14 -116.906 113.68 -116.446 113.213 C -115.986 112.746 -115.527 112.28 -115.074 111.813 C -114.614 111.339 -114.161 110.865 -113.715 110.392 C -113.262 109.911 -112.809 109.43 -112.363 108.942 C -112.273 108.845 -112.182 108.747 -112.092 108.65 L -110.837 107.27 C -110.81 107.235 -110.782 107.2 -110.747 107.166 C -110.28 106.643 -109.813 106.114 -109.353 105.584 L -109.346 105.591 C -104.246 99.745 -99.606 93.586 -95.446 87.169 L -95.474 87.148 C -88.061 75.694 -82.208 63.536 -77.958 50.813 C -76.976 47.88 -76.077 44.912 -75.269 41.916 C -75.213 41.693 -75.157 41.477 -75.095 41.261 C -74.774 40.069 -74.468 38.871 -74.182 37.666 C -73.861 36.307 -73.555 34.948 -73.255 33.583 C -72.823 31.541 -72.426 29.486 -72.064 27.417 C -71.945 26.727 -71.834 26.037 -71.722 25.347 C -71.59 24.525 -71.465 23.71 -71.346 22.888 C -70.245 15.321 -69.681 7.622 -69.667 -.16 L -69.674 -.16 L -69.667 -.516 C -69.667 -1.881 -69.681 -3.24 -69.716 -4.592 C -69.73 -5.01 -69.737 -5.428 -69.758 -5.839 C -69.765 -6.312 -69.785 -6.779 -69.806 -7.246 C -69.827 -7.824 -69.855 -8.396 -69.883 -8.974 C -69.911 -9.511 -69.939 -10.047 -69.974 -10.583 C -70.008 -11.197 -70.05 -11.803 -70.092 -12.416 C -70.099 -12.548 -70.113 -12.681 -70.127 -12.806 C -70.162 -13.329 -70.203 -13.858 -70.252 -14.381 C -70.294 -14.966 -70.35 -15.544 -70.406 -16.116 C -70.44 -16.534 -70.482 -16.952 -70.531 -17.37 C -70.705 -19.091 -70.907 -20.812 -71.144 -22.519 C -71.228 -23.174 -71.318 -23.829 -71.423 -24.484 C -71.743 -26.72 -72.127 -28.95 -72.552 -31.165 C -72.788 -32.433 -73.046 -33.701 -73.325 -34.963 C -73.478 -35.666 -73.632 -36.363 -73.792 -37.06 C -73.945 -37.722 -74.098 -38.377 -74.259 -39.038 C -74.412 -39.652 -74.565 -40.272 -74.718 -40.885 C -74.865 -41.463 -75.018 -42.034 -75.171 -42.613 C -77.484 -51.162 -80.494 -59.523 -84.222 -67.661 L -84.18 -67.681 C -87.371 -74.663 -91.071 -81.421 -95.258 -87.908 L -95.286 -87.894 C -101.71 -97.864 -109.277 -107.159 -117.756 -115.534 C -98.519 -127.685 -75.701 -142.309 -58.505 -154.3 C -43.093 -137.021 -30.475 -117.693 -20.86 -96.638 L -20.853 -96.638 C -20.742 -96.394 -20.63 -96.157 -20.533 -95.913 C -20.407 -95.663 -20.296 -95.412 -20.191 -95.161 C -19.899 -94.506 -19.606 -93.851 -19.321 -93.196 C -19.293 -93.154 -19.272 -93.105 -19.258 -93.064 C -18.902 -92.235 -18.54 -91.405 -18.192 -90.576 C -18.136 -90.437 -18.08 -90.305 -18.025 -90.165 C -17.69 -89.378 -17.363 -88.584 -17.035 -87.789 C -16.868 -87.371 -16.701 -86.953 -16.534 -86.535 C -16.227 -85.776 -15.92 -85.009 -15.621 -84.25 C -15.607 -84.222 -15.6 -84.187 -15.586 -84.159 C -15.398 -83.665 -15.21 -83.177 -15.029 -82.682 C -14.771 -82.013 -14.513 -81.352 -14.269 -80.683 C -14.241 -80.613 -14.22 -80.543 -14.193 -80.474 C -13.774 -79.345 -13.363 -78.209 -12.966 -77.074 C -12.674 -76.244 -12.388 -75.415 -12.109 -74.579 C -12.061 -74.475 -12.026 -74.37 -11.998 -74.266 C -11.308 -72.231 -10.653 -70.197 -10.033 -68.148 C -9.824 -67.465 -9.622 -66.783 -9.42 -66.1 C -9.148 -65.18 -8.883 -64.253 -8.619 -63.334 C -8.194 -61.843 -7.789 -60.338 -7.399 -58.84 C -7.002 -57.335 -6.633 -55.83 -6.271 -54.318 C -5.483 -51.015 -4.766 -47.699 -4.132 -44.362 C -3.741 -42.362 -3.386 -40.355 -3.059 -38.342 L -3.059 -38.335 C -2.682 -36.036 -2.341 -33.729 -2.034 -31.409 C -1.825 -29.869 -1.637 -28.316 -1.463 -26.769 C -1.442 -26.657 -1.428 -26.546 -1.421 -26.434 C -1.324 -25.536 -1.226 -24.644 -1.143 -23.745 C -1.045 -22.783 -.954 -21.822 -.871 -20.86 C -.787 -19.899 -.711 -18.937 -.641 -17.976 C -.578 -17.21 -.529 -16.45 -.481 -15.684 C -.439 -15.126 -.411 -14.576 -.383 -14.019 C -.348 -13.524 -.32 -13.036 -.3 -12.541 C -.251 -11.664 -.216 -10.786 -.181 -9.908 C -.139 -8.87 -.104 -7.831 -.077 -6.786 C -.056 -6.097 -.042 -5.414 -.035 -4.724 C -.007 -3.323 .007 -1.923 .007 -.516 Z " fill="#231f20"/>
<path transform="matrix(1,0,0,-1,764.0038,1213.3412)" d="M 0 0 C -1.944 -2.069 -3.832 -4.187 -5.651 -6.34 C -5.901 -6.633 -6.333 -6.717 -6.675 -6.535 C -37.749 10.012 -62.992 23.208 -89.747 40.711 C -92.541 42.536 -94.004 40.85 -91.217 38.634 C -64.811 17.628 -49.977 7.734 -12.695 -13.635 C -12.263 -13.879 -12.144 -14.45 -12.444 -14.847 C -14.186 -17.189 -15.872 -19.571 -17.495 -21.982 C -17.732 -22.337 -18.192 -22.449 -18.568 -22.254 C -32.224 -15.043 -45.755 -7.971 -59.153 -.669 C -74.454 7.671 -90.966 17.384 -106.176 25.926 C -106.713 26.225 -107.389 26.065 -107.73 25.55 C -108.072 25.041 -107.953 24.351 -107.472 23.975 C -98.965 17.377 -89.406 9.232 -80.362 3.491 C -62.108 -8.138 -43.616 -19.509 -24.581 -29.827 L -23.724 -30.294 C -23.313 -30.517 -23.167 -31.033 -23.404 -31.437 C -24.936 -34.078 -26.4 -36.76 -27.793 -39.47 C -28.002 -39.881 -28.504 -40.042 -28.908 -39.826 C -59.042 -24.044 -89.357 -8.152 -119.672 7.727 C -120.306 8.013 -121.567 7.232 -120.599 6.319 C -93.586 -15.489 -63.787 -32.83 -32.942 -48.549 C -32.552 -48.744 -32.385 -49.211 -32.559 -49.608 C -33.701 -52.256 -34.781 -54.931 -35.778 -57.634 C -35.952 -58.094 -36.467 -58.31 -36.906 -58.101 C -55.858 -49.113 -118.794 -18.436 -170.026 16.394 C -179.014 22.623 -172.987 37.687 -173.893 48.946 C -173.934 49.587 -174.011 50.221 -174.109 50.834 C -174.603 53.823 -177.669 56.917 -180.317 58.986 C -189.047 65.793 -198.139 71.966 -207.531 77.61 C -216.463 83.525 -256.93 111.451 -270.168 117.833 C -280.306 123.079 -291.07 127.775 -302.197 131.872 C -302.211 131.879 -302.218 131.886 -302.225 131.886 C -314.411 136.38 -327.036 140.142 -339.766 143.111 C -339.773 143.111 -339.78 143.111 -339.787 143.118 C -341.215 143.452 -342.636 143.772 -344.065 144.086 C -347.472 144.832 -350.886 145.514 -354.3 146.148 C -398.466 154.279 -442.333 152.489 -471.958 137.53 C -471.491 137.07 -471.018 136.61 -470.544 136.157 C -470.189 135.809 -469.826 135.46 -469.457 135.119 C -468.844 134.541 -468.231 133.969 -467.611 133.405 C -467.081 132.917 -466.545 132.436 -466.008 131.956 C -465.472 131.475 -464.928 131.001 -464.385 130.534 L -464.392 130.527 C -458.525 125.441 -452.359 120.822 -445.921 116.676 L -445.907 116.704 C -434.697 109.493 -422.817 103.773 -410.394 99.578 C -409.565 99.299 -408.729 99.021 -407.893 98.756 C -406.813 98.415 -405.733 98.08 -404.646 97.76 C -403.573 97.446 -402.5 97.14 -401.42 96.84 C -399.79 96.401 -398.153 95.983 -396.508 95.586 C -396.501 95.593 -396.501 95.593 -396.494 95.586 C -391.589 94.415 -386.615 93.475 -381.57 92.757 L -381.57 92.75 C -374.031 91.684 -366.367 91.141 -358.619 91.141 L -358.522 91.141 C -357.881 91.141 -357.24 91.148 -356.599 91.155 C -356.202 91.155 -355.798 91.162 -355.401 91.175 C -354.976 91.182 -354.557 91.189 -354.139 91.203 C -353.568 91.217 -352.997 91.231 -352.425 91.259 C -352.028 91.273 -351.638 91.287 -351.241 91.308 C -350.823 91.322 -350.405 91.343 -349.987 91.371 C -349.471 91.392 -348.956 91.419 -348.44 91.454 C -347.869 91.489 -347.297 91.524 -346.726 91.566 C -346.594 91.573 -346.461 91.587 -346.329 91.594 C -345.737 91.635 -345.145 91.684 -344.552 91.74 C -343.946 91.789 -343.34 91.844 -342.734 91.907 C -342.567 91.921 -342.399 91.935 -342.232 91.956 C -341.675 92.005 -341.124 92.06 -340.574 92.13 C -339.912 92.193 -339.25 92.269 -338.595 92.36 C -337.773 92.458 -336.951 92.562 -336.129 92.68 C -335.516 92.764 -334.902 92.855 -334.282 92.945 C -333.404 93.078 -332.534 93.21 -331.663 93.363 C -331.544 93.377 -331.433 93.398 -331.321 93.419 C -330.471 93.565 -329.628 93.712 -328.778 93.872 C -328.172 93.976 -327.566 94.095 -326.96 94.22 C -326.897 94.227 -326.841 94.241 -326.778 94.255 C -326.291 94.346 -325.81 94.45 -325.322 94.555 C -324.207 94.785 -323.093 95.029 -321.992 95.286 C -321.288 95.447 -320.591 95.614 -319.895 95.781 C -319.198 95.955 -318.501 96.129 -317.811 96.31 C -317.24 96.457 -316.676 96.61 -316.111 96.763 C -315.052 97.049 -314 97.349 -312.941 97.655 C -312.021 97.927 -311.102 98.206 -310.182 98.491 C -303.807 100.498 -297.529 102.909 -291.398 105.723 L -291.384 105.696 C -287.796 107.333 -284.27 109.11 -280.807 111.012 C -279.644 111.625 -277.519 112.942 -274.864 114.677 C -273.896 114.217 -273.032 113.799 -272.286 113.436 C -261.724 108.35 -231.987 88.235 -217.697 78.571 C -215.133 76.844 -212.987 75.387 -211.412 74.335 C -226.942 61.48 -244.006 50.785 -262.393 42.383 L -262.393 42.376 C -262.825 42.181 -263.25 41.986 -263.682 41.791 C -264.448 41.449 -265.214 41.108 -265.981 40.773 C -266.838 40.397 -267.695 40.028 -268.559 39.666 C -269.451 39.289 -270.342 38.913 -271.241 38.551 C -271.799 38.321 -272.363 38.091 -272.92 37.868 C -274.042 37.422 -275.164 36.983 -276.293 36.551 C -279.107 35.471 -281.943 34.461 -284.793 33.499 C -285.587 33.228 -286.388 32.963 -287.19 32.705 C -292.784 30.88 -298.449 29.277 -304.162 27.904 C -306.023 27.445 -307.897 27.02 -309.771 26.623 C -310.593 26.448 -311.415 26.274 -312.237 26.107 C -313.471 25.856 -314.704 25.612 -315.944 25.382 C -317.177 25.152 -318.418 24.929 -319.665 24.72 C -321.316 24.435 -322.981 24.177 -324.646 23.933 C -326.312 23.689 -327.977 23.466 -329.649 23.257 C -330.436 23.16 -331.224 23.062 -332.018 22.979 C -332.297 22.937 -332.575 22.909 -332.854 22.881 C -333.697 22.784 -334.547 22.7 -335.39 22.616 C -336.268 22.526 -337.139 22.442 -338.017 22.365 C -338.226 22.344 -338.435 22.331 -338.637 22.317 C -339.438 22.247 -340.239 22.184 -341.041 22.122 C -341.138 22.115 -341.229 22.108 -341.319 22.101 C -342.065 22.045 -342.81 21.996 -343.563 21.947 C -344.03 21.913 -344.497 21.885 -344.97 21.864 C -345.514 21.829 -346.057 21.801 -346.601 21.773 C -346.97 21.752 -347.339 21.731 -347.708 21.717 C -348.357 21.69 -349.004 21.662 -349.659 21.634 C -350.008 21.62 -350.349 21.613 -350.698 21.599 C -351.311 21.578 -351.924 21.557 -352.544 21.543 C -352.892 21.536 -353.248 21.529 -353.596 21.522 C -354.293 21.501 -354.996 21.494 -355.693 21.487 C -356.62 21.474 -357.553 21.467 -358.487 21.467 L -358.619 21.467 C -364.138 21.467 -369.628 21.662 -375.09 22.045 C -380.546 22.435 -385.974 23.006 -391.359 23.773 C -391.924 23.849 -392.488 23.933 -393.052 24.024 C -393.512 24.093 -393.972 24.163 -394.432 24.233 C -395.031 24.323 -395.63 24.414 -396.23 24.518 C -396.919 24.623 -397.616 24.741 -398.306 24.86 C -400.577 25.243 -402.835 25.668 -405.085 26.135 C -405.705 26.26 -406.318 26.393 -406.931 26.518 C -407.872 26.713 -408.806 26.922 -409.739 27.131 C -410.548 27.312 -411.356 27.5 -412.164 27.688 C -412.638 27.8 -413.112 27.911 -413.578 28.03 C -414.805 28.33 -416.031 28.636 -417.25 28.957 C -417.877 29.117 -418.504 29.284 -419.124 29.458 C -419.508 29.563 -419.891 29.667 -420.274 29.772 C -421.479 30.106 -422.685 30.448 -423.876 30.803 C -424.078 30.859 -424.273 30.921 -424.475 30.977 C -424.824 31.082 -425.179 31.186 -425.527 31.298 C -426.064 31.458 -426.6 31.618 -427.144 31.785 L -428.064 32.078 C -428.705 32.28 -429.346 32.482 -429.987 32.691 C -430.544 32.872 -431.094 33.053 -431.645 33.235 C -433.233 33.757 -434.815 34.301 -436.383 34.865 C -437.017 35.088 -437.658 35.325 -438.292 35.562 C -438.926 35.792 -439.56 36.036 -440.194 36.272 C -440.842 36.516 -441.49 36.76 -442.138 37.011 C -442.772 37.255 -443.406 37.506 -444.033 37.756 C -445.412 38.307 -446.792 38.871 -448.158 39.449 C -448.332 39.519 -448.506 39.589 -448.68 39.666 C -448.764 39.7 -448.854 39.742 -448.938 39.777 C -449.872 40.174 -450.805 40.578 -451.732 40.982 C -451.816 41.017 -451.906 41.059 -451.99 41.101 C -453.091 41.582 -454.184 42.076 -455.278 42.578 C -456.017 42.912 -456.748 43.254 -457.473 43.602 C -457.682 43.7 -457.891 43.804 -458.1 43.902 C -458.476 44.076 -458.846 44.257 -459.222 44.438 C -460.072 44.842 -460.922 45.26 -461.765 45.678 C -462.378 45.978 -462.991 46.285 -463.597 46.598 C -464.197 46.898 -464.789 47.204 -465.381 47.518 C -465.911 47.789 -466.433 48.068 -466.956 48.347 C -467.374 48.57 -467.792 48.793 -468.203 49.016 C -468.879 49.378 -469.548 49.747 -470.216 50.117 C -470.941 50.521 -471.666 50.925 -472.39 51.336 C -473.094 51.733 -473.784 52.144 -474.48 52.534 C -475.247 52.973 -476.02 53.405 -476.773 53.879 C -476.828 53.914 -476.891 53.949 -476.954 53.983 C -477.804 54.492 -478.654 55.008 -479.497 55.53 C -480.863 56.366 -482.228 57.223 -483.58 58.094 C -492.826 64.024 -501.646 70.615 -509.993 77.861 C -511.554 79.206 -513.087 80.578 -514.613 81.972 C -516.132 83.358 -517.637 84.773 -519.121 86.208 C -519.866 86.925 -520.598 87.643 -521.336 88.375 C -521.629 88.653 -521.922 88.946 -522.207 89.232 C -539.779 106.796 -554.222 126.765 -565.28 148.747 C -565.642 149.458 -565.997 150.182 -566.353 150.9 C -566.771 151.743 -567.182 152.593 -567.586 153.443 C -567.704 153.687 -567.816 153.924 -567.92 154.161 C -568.213 154.774 -568.499 155.387 -568.784 156 C -568.854 156.154 -568.931 156.314 -569 156.467 C -569.955 158.543 -570.882 160.648 -571.773 162.759 C -575.187 170.841 -578.121 179.062 -580.58 187.409 C -581.138 189.298 -581.667 191.193 -582.176 193.095 C -582.67 194.941 -583.137 196.787 -583.583 198.641 C -584.35 201.783 -585.032 204.939 -585.645 208.109 C -585.889 209.378 -586.126 210.646 -586.356 211.921 C -586.468 212.555 -586.579 213.196 -586.691 213.83 C -586.739 214.143 -586.795 214.45 -586.844 214.756 C -587.011 215.725 -587.164 216.693 -587.311 217.662 C -587.722 220.344 -588.077 223.034 -588.398 225.737 C -588.502 226.636 -588.6 227.542 -588.697 228.44 L -588.697 228.447 C -588.823 229.646 -588.934 230.851 -589.046 232.057 C -589.094 232.649 -589.15 233.248 -589.199 233.84 C -589.206 234.007 -589.22 234.175 -589.234 234.342 C -589.282 234.962 -589.331 235.575 -589.373 236.195 C -589.519 238.188 -589.638 240.194 -589.721 242.194 C -589.791 243.65 -589.84 245.113 -589.882 246.57 C -589.889 246.925 -589.903 247.273 -589.91 247.629 C -589.923 248.381 -589.937 249.141 -589.944 249.893 C -589.958 250.868 -589.965 251.844 -589.965 252.819 C -589.965 253.795 -589.958 254.77 -589.944 255.746 C -589.937 256.394 -589.93 257.049 -589.91 257.697 C -589.882 259.431 -589.826 261.159 -589.749 262.887 C -589.742 263.013 -589.735 263.131 -589.735 263.243 C -589.707 263.863 -589.673 264.476 -589.645 265.096 C -589.575 266.413 -589.491 267.73 -589.401 269.046 C -589.394 269.137 -589.387 269.228 -589.387 269.318 C -589.338 269.952 -589.289 270.593 -589.241 271.227 C -589.157 272.244 -589.073 273.269 -588.983 274.286 C -588.83 275.902 -588.662 277.519 -588.481 279.128 C -588.321 280.564 -588.147 281.992 -587.959 283.413 C -587.931 283.622 -587.903 283.831 -587.875 284.04 C -587.771 284.807 -587.067 285.336 -586.307 285.232 C -577.48 283.978 -528.868 277.066 -520.075 275.798 C -519.323 275.686 -518.793 274.997 -518.891 274.244 L -518.891 274.23 C -518.981 273.547 -519.072 272.858 -519.149 272.175 C -519.232 271.492 -519.309 270.802 -519.378 270.119 C -519.385 270.043 -519.392 269.973 -519.399 269.904 C -519.497 268.991 -519.587 268.078 -519.664 267.158 C -519.824 265.382 -519.95 263.598 -520.047 261.814 C -520.054 261.605 -520.068 261.403 -520.075 261.201 C -520.11 260.504 -520.145 259.815 -520.173 259.125 C -520.173 259.041 -520.18 258.958 -520.18 258.874 C -520.194 258.56 -520.201 258.247 -520.208 257.933 C -520.235 257.223 -520.249 256.505 -520.263 255.794 L -520.263 255.592 C -520.284 254.666 -520.291 253.746 -520.291 252.819 C -520.291 251.914 -520.284 251.008 -520.263 250.102 L -520.18 246.765 C -520.152 245.936 -520.11 245.107 -520.068 244.277 C -520.061 244.089 -520.047 243.901 -520.04 243.713 C -519.992 242.863 -519.936 242.02 -519.88 241.177 C -519.81 240.229 -519.734 239.282 -519.657 238.341 C -519.65 238.292 -519.643 238.244 -519.643 238.202 C -519.56 237.261 -519.462 236.328 -519.365 235.394 C -519.288 234.676 -519.204 233.952 -519.121 233.234 C -518.995 232.154 -518.856 231.074 -518.703 230.001 C -518.549 228.921 -518.389 227.848 -518.215 226.782 C -518.062 225.835 -517.894 224.88 -517.727 223.932 C -517.469 222.504 -517.198 221.083 -516.905 219.668 C -516.02 215.432 -514.961 211.231 -513.742 207.078 L -513.763 207.071 C -512.313 202.125 -510.627 197.261 -508.704 192.489 C -391.582 211.823 -325.921 181.912 -283.964 156.495 C -279.337 153.701 -275.004 150.949 -270.914 148.329 C -270.844 148.28 -270.767 148.239 -270.698 148.19 C -263.333 143.466 -256.777 139.16 -250.827 135.697 C -229.806 122.438 -204.208 106.093 -186.03 93.252 C -186.023 93.245 -186.009 93.238 -186.002 93.231 C -181.529 89.838 -177.042 86.459 -172.464 83.205 L -172.45 83.191 C -171.398 82.438 -170.346 81.7 -169.287 80.968 C -167.427 79.686 -164.542 79.491 -161.748 79.644 C -160.592 79.714 -159.449 79.833 -158.404 79.965 C -144.72 81.686 -139.467 84.947 -125.79 86.528 C -123.386 86.807 -114.802 87.086 -110.259 83.532 C -90.061 67.744 -70.622 48.556 -50.117 33.221 C -41.421 26.713 -20.951 12.151 -.216 1.296 C .265 1.045 .369 .404 0 0 "/>
</g>
<symbol id="font_1_58">
<path d="M 0 .27490235 L 0 .57958987 L .1328125 .57958987 L .1328125 .27490235 C .1328125 .23128255 .14420574 .19645183 .16699219 .17041016 C .19010417 .14436849 .21679688 .13134766 .24707031 .13134766 C .265625 .13134766 .28271485 .13655599 .29833985 .14697266 C .31429038 .15771485 .32714845 .17399089 .33691407 .19580078 C .3466797 .21761067 .3515625 .24397786 .3515625 .27490235 L .3515625 .57958987 L .4921875 .57958987 L .4921875 .024902344 L .375 .024902344 L .375 .079589847 C .35091148 .053222658 .32486979 .033365888 .296875 .020019532 C .26920573 .0066731774 .24121094 0 .21289063 0 C .18489583 0 .15804036 .0063476564 .13232422 .019042969 C .106933597 .03141276 .08414713 .049641927 .063964847 .07373047 C .04378255 .09814453 .027994791 .1274414 .016601563 .1616211 C .005533854 .19580078 0 .2335612 0 .27490235 Z "/>
</symbol>
<symbol id="font_1_4c">
<path d="M 0 .734375 L .1328125 .734375 L .1328125 .625 L 0 .625 L 0 .734375 M 0 .5546875 L .1328125 .5546875 L .1328125 0 L 0 0 L 0 .5546875 Z "/>
</symbol>
<symbol id="font_1_36">
<path d="M .03125 .5546875 C .03125 .5836589 .036621095 .61083987 .04736328 .63623049 C .05843099 .6619466 .07405599 .6845703 .09423828 .70410159 C .11442057 .7239583 .13769531 .73909506 .1640625 .7495117 C .19042969 .7602539 .21907552 .765625 .25 .765625 C .26595054 .765625 .2849935 .7628581 .3071289 .7573242 C .3292643 .7521159 .35205079 .7421875 .37548829 .72753909 C .39892579 .7132161 .4194336 .69173178 .43701173 .66308596 C .45458985 .6344401 .46516929 .5983073 .46875 .5546875 L .3203125 .5546875 C .31705729 .57877609 .308431 .59684249 .2944336 .6088867 C .2804362 .62125656 .2643229 .6274414 .24609375 .6274414 C .22623699 .6274414 .2084961 .62076827 .1928711 .6074219 C .1772461 .59440109 .1694336 .5777995 .1694336 .5576172 C .1694336 .5524089 .17024739 .54622396 .171875 .5390625 C .17838542 .5159505 .20019531 .4951172 .23730469 .4765625 C .27441407 .4580078 .31201173 .43961589 .35009767 .42138673 C .38850913 .40315757 .42041017 .37890626 .44580079 .3486328 C .47151695 .3186849 .484375 .27799479 .484375 .2265625 C .484375 .1875 .47688804 .15348308 .46191407 .12451172 C .44726563 .09554037 .42789714 .0719401 .4038086 .053710939 C .37972007 .03548177 .35351563 .021972657 .3251953 .013183594 C .296875 .0043945314 .26920573 0 .2421875 0 C .19726563 0 .1570638 .009114583 .12158203 .02734375 C .08610026 .045572919 .057454427 .0719401 .03564453 .10644531 C .014160156 .14095052 .0022786458 .18098958 0 .2265625 L .1484375 .2265625 C .15039063 .19498699 .16064453 .17122396 .17919922 .15527344 C .1977539 .13964844 .21988933 .13183594 .24560547 .13183594 C .26904298 .13183594 .2902018 .13769531 .30908204 .14941406 C .32828776 .16113281 .33984376 .1764323 .34375 .1953125 C .34570313 .20540364 .3466797 .21500652 .3466797 .2241211 C .3466797 .25830079 .33561198 .2820638 .31347657 .29541017 C .29166667 .30908204 .25358073 .3264974 .19921875 .34765626 C .1451823 .36914063 .104003909 .3943685 .075683597 .42333985 C .0476888 .45263673 .032877607 .49641929 .03125 .5546875 Z "/>
</symbol>
<use xlink:href="#font_1_58" transform="matrix(553.9527,0,0,-553.9527,709.577,1205.6697)" fill="#231f20"/>
<use xlink:href="#font_1_4c" transform="matrix(553.9527,0,0,-553.9527,1056.9054,1191.875)" fill="#231f20"/>
<use xlink:href="#font_1_36" transform="matrix(553.9527,0,0,-553.9527,1178.8442,1200.5305)" fill="#231f20"/>
<use xlink:href="#font_1_4c" transform="matrix(553.9527,0,0,-553.9527,1508.9308,1191.875)" fill="#231f20"/>
</g>
</g>
</svg>
