<?xml version="1.0" encoding="utf-8"?>
<!-- Generator: Adobe Illustrator 26.0.2, SVG Export Plug-In . SVG Version: 6.00 Build 0)  -->
<svg version="1.2" baseProfile="tiny" id="Livello_1"
	 xmlns="http://www.w3.org/2000/svg" xmlns:xlink="http://www.w3.org/1999/xlink" x="0px" y="0px" viewBox="0 0 14.17 14.17"
	 overflow="visible" xml:space="preserve">
<g id="LOGO_PIENO">
	<path d="M10.87,11.82L7.21,9.11l-3.66,2.71c-0.12,0.1-0.25,0.11-0.39,0.04c-0.14-0.06-0.21-0.17-0.21-0.33V3.02
		c0-0.31,0.11-0.58,0.33-0.8S3.77,1.9,4.09,1.9h6.26c0.31,0,0.58,0.11,0.8,0.33s0.33,0.48,0.33,0.8v8.51c0,0.16-0.07,0.27-0.21,0.33
		c-0.04,0.03-0.09,0.05-0.16,0.05C11,11.9,10.93,11.88,10.87,11.82z"/>
</g>
</svg>
