<?xml version="1.0" encoding="utf-8"?>
<!-- Generator: Adobe Illustrator 26.0.2, SVG Export Plug-In . SVG Version: 6.00 Build 0)  -->
<svg version="1.2" baseProfile="tiny" id="Livello_1"
	 xmlns="http://www.w3.org/2000/svg" xmlns:xlink="http://www.w3.org/1999/xlink" x="0px" y="0px" viewBox="0 0 14.17 14.17"
	 overflow="visible" xml:space="preserve">
<g>
	<path d="M10.87,12.82l-3.66-2.71l-3.66,2.71c-0.12,0.1-0.25,0.11-0.39,0.04c-0.14-0.06-0.21-0.17-0.21-0.33V4.02
		c0-0.31,0.11-0.58,0.33-0.8S3.77,2.9,4.09,2.9h6.26c0.31,0,0.58,0.11,0.8,0.33s0.33,0.48,0.33,0.8v8.51c0,0.16-0.07,0.27-0.21,0.33
		c-0.04,0.03-0.09,0.05-0.16,0.05C11,12.9,10.93,12.88,10.87,12.82z M7.44,9.35l3.28,2.43V4.02c0-0.1-0.04-0.19-0.11-0.26
		s-0.16-0.11-0.26-0.11H4.09C4.04,3.65,4,3.65,3.96,3.67c0,0-0.07,0.03-0.14,0.09c-0.12,0.12-0.11,6.95-0.11,8.02l3.28-2.43
		C7.05,9.3,7.13,9.27,7.21,9.27S7.37,9.3,7.44,9.35z"/>
</g>
</svg>
