<?xml version="1.0" encoding="UTF-8" standalone="no"?>
<!DOCTYPE svg PUBLIC "-//W3C//DTD SVG 1.1//EN" "http://www.w3.org/Graphics/SVG/1.1/DTD/svg11.dtd">
<svg xmlns="http://www.w3.org/2000/svg" xmlns:xlink="http://www.w3.org/1999/xlink" version="1.1" width="1000em" height="1000em" viewBox="0 0 1000 1000">
<g enable-background="new">
<g id="Layer-1" data-name="Livello 1">
<clipPath id="cp0">
<path transform="matrix(1,0,0,-1,0,1000)" d="M 0 1000 L 1000 1000 L 1000 0 L 0 0 Z "/>
</clipPath>
<g clip-path="url(#cp0)">
<path transform="matrix(1,0,0,-1,0,1000)" d="M 966.707 222.792 L 304.42097 222.792 L 304.42097 578.063 L 966.707 578.063 Z M 33.345 765.773 L 96.361 719.49 L 96.361 563.339 C 96.361 560.072 96.758 547.197 105.47 547.197 C 109.747 547.197 118.028 553.629 121.171 555.932 L 161.986 599.436 L 223.493 476.751 C 225.161 473.62 229.268 471.623 233.714 471.623 C 234.395 471.623 235.076 471.668 235.756 471.759 C 240.941 472.474 244.695 475.809 244.695 479.689 L 244.695 610.519 L 282.448 582.783 L 282.448 234.193 L 33.334 417.172 L 33.334 765.773 Z M 118.335 703.347 L 222.745 626.662 L 222.745 522.41 L 175.588 613.797 C 174.238 616.327 173.534 617.439 169.723 618.63 C 169.008 618.857 166.569 619.118 165.82 619.118 C 162.939 619.118 158.39 618.698 156.303 617.167 L 118.335 578.075 L 118.335 703.347 Z M 702.449 776.902 L 951.189 594.206 L 298.001 594.206 L 241.508 635.703 L 241.496 635.714 L 138.311 711.503 L 48.875 777.196 Z M 988.465 587.706 C 988.397 587.944 988.284 588.16 988.193 588.387 C 988.079 588.659 988 588.943 987.841 589.215 C 987.694 589.487 987.478 589.726 987.297 589.975 C 987.138 590.179 987.013 590.406 986.832 590.599 C 986.435 591.041 985.981 591.45 985.47 591.824 L 985.459 591.835 L 714.757 790.673 C 712.704 792.182 709.913 793.033 706.997 793.033 L 22.364 793.339 L 22.342 793.339 L 22.33 793.339 C 21.65 793.339 20.98 793.282 20.322 793.191 C 20.175 793.169 20.027 793.146 19.88 793.123 C 19.335 793.033 18.802 792.908 18.28 792.76 C 18.178 792.726 18.076 792.704 17.974 792.67 C 16.715 792.273 15.569 791.694 14.594 790.991 C 14.582 790.991 14.582 790.979 14.571 790.979 C 13.573 790.242 12.733 789.38 12.166 788.37 C 11.508 787.202 11.258 785.965 11.361 784.752 L 11.361 413.859 C 11.361 411.715 12.518 409.673 14.582 408.153 L 285.659 209.043 C 285.659 209.043 285.67 209.043 285.67 209.032 C 286.18 208.658 286.736 208.329 287.326 208.034 C 287.61 207.898 287.905 207.807 288.2 207.682 C 288.54 207.546 288.858 207.398 289.221 207.285 C 289.584 207.172 289.969 207.104 290.355 207.024 C 290.661 206.956 290.956 206.865 291.274 206.82 C 291.988 206.718 292.703 206.661 293.429 206.661 L 977.677 206.661 C 983.746 206.661 988.658 210.268 988.658 214.727 L 988.658 586.129 C 988.68 586.663 988.601 587.184 988.465 587.706 "/>
<path transform="matrix(1,0,0,-1,0,1000)" stroke-width="7" stroke-linecap="butt" stroke-miterlimit="10" stroke-linejoin="miter" fill="none" stroke="#000000" d="M 966.707 222.792 L 304.42097 222.792 L 304.42097 578.063 L 966.707 578.063 Z M 33.345 765.773 L 96.361 719.49 L 96.361 563.339 C 96.361 560.072 96.758 547.197 105.47 547.197 C 109.747 547.197 118.028 553.629 121.171 555.932 L 161.986 599.436 L 223.493 476.751 C 225.161 473.62 229.268 471.623 233.714 471.623 C 234.395 471.623 235.076 471.668 235.756 471.759 C 240.941 472.474 244.695 475.809 244.695 479.689 L 244.695 610.519 L 282.448 582.783 L 282.448 234.193 L 33.334 417.172 L 33.334 765.773 L 33.345 765.773 Z M 118.335 703.347 L 222.745 626.662 L 222.745 522.41 L 175.588 613.797 C 174.238 616.327 173.534 617.439 169.723 618.63 C 169.008 618.857 166.569 619.118 165.82 619.118 C 162.939 619.118 158.39 618.698 156.303 617.167 L 118.335 578.075 L 118.335 703.347 Z M 702.449 776.902 L 951.189 594.206 L 298.001 594.206 L 241.508 635.703 L 241.496 635.714 L 138.311 711.503 L 48.875 777.196 L 702.449 776.902 Z M 988.465 587.706 C 988.397 587.944 988.284 588.16 988.193 588.387 C 988.079 588.659 988 588.943 987.841 589.215 C 987.694 589.487 987.478 589.726 987.297 589.975 C 987.138 590.179 987.013 590.406 986.832 590.599 C 986.435 591.041 985.981 591.45 985.47 591.824 L 985.459 591.835 L 714.757 790.673 C 712.704 792.182 709.913 793.033 706.997 793.033 L 22.364 793.339 L 22.342 793.339 L 22.33 793.339 C 21.65 793.339 20.98 793.282 20.322 793.191 C 20.175 793.169 20.027 793.146 19.88 793.123 C 19.335 793.033 18.802 792.908 18.28 792.76 C 18.178 792.726 18.076 792.704 17.974 792.67 C 16.715 792.273 15.569 791.694 14.594 790.991 C 14.582 790.991 14.582 790.979 14.571 790.979 C 13.573 790.242 12.733 789.38 12.166 788.37 C 11.508 787.202 11.258 785.965 11.361 784.752 L 11.361 413.859 C 11.361 411.715 12.518 409.673 14.582 408.153 L 285.659 209.043 C 285.659 209.043 285.67 209.043 285.67 209.032 C 286.18 208.658 286.736 208.329 287.326 208.034 C 287.61 207.898 287.905 207.807 288.2 207.682 C 288.54 207.546 288.858 207.398 289.221 207.285 C 289.584 207.172 289.969 207.104 290.355 207.024 C 290.661 206.956 290.956 206.865 291.274 206.82 C 291.988 206.718 292.703 206.661 293.429 206.661 L 977.677 206.661 C 983.746 206.661 988.658 210.268 988.658 214.727 L 988.658 586.129 C 988.68 586.663 988.601 587.184 988.465 587.706 Z "/>
<path transform="matrix(1,0,0,-1,412.3144,521.5479)" d="M 0 0 C 9.427 0 17.073 7.487 17.073 16.721 C 17.073 25.955 9.427 33.442 0 33.442 C -9.427 33.442 -17.073 25.955 -17.073 16.721 C -17.073 7.487 -9.427 0 0 0 "/>
<path transform="matrix(1,0,0,-1,412.3144,521.5479)" stroke-width="7" stroke-linecap="butt" stroke-miterlimit="10" stroke-linejoin="miter" fill="none" stroke="#000000" d="M 0 0 C 9.427 0 17.073 7.487 17.073 16.721 C 17.073 25.955 9.427 33.442 0 33.442 C -9.427 33.442 -17.073 25.955 -17.073 16.721 C -17.073 7.487 -9.427 0 0 0 Z "/>
<path transform="matrix(1,0,0,-1,412.3144,584.8928)" d="M 0 0 C 9.427 0 17.073 7.487 17.073 16.721 C 17.073 25.955 9.427 33.442 0 33.442 C -9.427 33.442 -17.073 25.955 -17.073 16.721 C -17.073 7.487 -9.427 0 0 0 "/>
<path transform="matrix(1,0,0,-1,412.3144,584.8928)" stroke-width="7" stroke-linecap="butt" stroke-miterlimit="10" stroke-linejoin="miter" fill="none" stroke="#000000" d="M 0 0 C 9.427 0 17.073 7.487 17.073 16.721 C 17.073 25.955 9.427 33.442 0 33.442 C -9.427 33.442 -17.073 25.955 -17.073 16.721 C -17.073 7.487 -9.427 0 0 0 Z "/>
<path transform="matrix(1,0,0,-1,412.3144,648.2377)" d="M 0 0 C 9.427 0 17.073 7.487 17.073 16.721 C 17.073 25.955 9.427 33.442 0 33.442 C -9.427 33.442 -17.073 25.955 -17.073 16.721 C -17.073 7.487 -9.427 0 0 0 "/>
<path transform="matrix(1,0,0,-1,412.3144,648.2377)" stroke-width="7" stroke-linecap="butt" stroke-miterlimit="10" stroke-linejoin="miter" fill="none" stroke="#000000" d="M 0 0 C 9.427 0 17.073 7.487 17.073 16.721 C 17.073 25.955 9.427 33.442 0 33.442 C -9.427 33.442 -17.073 25.955 -17.073 16.721 C -17.073 7.487 -9.427 0 0 0 Z "/>
<path transform="matrix(1,0,0,-1,412.3144,711.58267)" d="M 0 0 C 9.427 0 17.073 7.487 17.073 16.721 C 17.073 25.955 9.427 33.442 0 33.442 C -9.427 33.442 -17.073 25.955 -17.073 16.721 C -17.073 7.487 -9.427 0 0 0 "/>
<path transform="matrix(1,0,0,-1,412.3144,711.58267)" stroke-width="7" stroke-linecap="butt" stroke-miterlimit="10" stroke-linejoin="miter" fill="none" stroke="#000000" d="M 0 0 C 9.427 0 17.073 7.487 17.073 16.721 C 17.073 25.955 9.427 33.442 0 33.442 C -9.427 33.442 -17.073 25.955 -17.073 16.721 C -17.073 7.487 -9.427 0 0 0 Z "/>
<path transform="matrix(1,0,0,-1,483.498,510.9185)" d="M 0 0 L 275.909 0 C 280.458 0 284.145 2.711 284.145 6.046 C 284.145 9.382 280.458 12.093 275.909 12.093 L 0 12.093 C -4.549 12.093 -8.236 9.382 -8.236 6.046 C -8.236 2.711 -4.549 0 0 0 "/>
<path transform="matrix(1,0,0,-1,483.498,510.9185)" stroke-width="7" stroke-linecap="butt" stroke-miterlimit="10" stroke-linejoin="miter" fill="none" stroke="#000000" d="M 0 0 L 275.909 0 C 280.458 0 284.145 2.711 284.145 6.046 C 284.145 9.382 280.458 12.093 275.909 12.093 L 0 12.093 C -4.549 12.093 -8.236 9.382 -8.236 6.046 C -8.236 2.711 -4.549 0 0 0 Z "/>
<path transform="matrix(1,0,0,-1,483.498,574.2521)" d="M 0 0 L 275.909 0 C 280.458 0 284.145 2.711 284.145 6.046 C 284.145 9.382 280.458 12.093 275.909 12.093 L 0 12.093 C -4.549 12.093 -8.236 9.382 -8.236 6.046 C -8.236 2.711 -4.549 0 0 0 "/>
<path transform="matrix(1,0,0,-1,483.498,574.2521)" stroke-width="7" stroke-linecap="butt" stroke-miterlimit="10" stroke-linejoin="miter" fill="none" stroke="#000000" d="M 0 0 L 275.909 0 C 280.458 0 284.145 2.711 284.145 6.046 C 284.145 9.382 280.458 12.093 275.909 12.093 L 0 12.093 C -4.549 12.093 -8.236 9.382 -8.236 6.046 C -8.236 2.711 -4.549 0 0 0 Z "/>
<path transform="matrix(1,0,0,-1,483.498,637.5857)" d="M 0 0 L 275.909 0 C 280.458 0 284.145 2.711 284.145 6.046 C 284.145 9.382 280.458 12.093 275.909 12.093 L 0 12.093 C -4.549 12.093 -8.236 9.382 -8.236 6.046 C -8.236 2.711 -4.549 0 0 0 "/>
<path transform="matrix(1,0,0,-1,483.498,637.5857)" stroke-width="7" stroke-linecap="butt" stroke-miterlimit="10" stroke-linejoin="miter" fill="none" stroke="#000000" d="M 0 0 L 275.909 0 C 280.458 0 284.145 2.711 284.145 6.046 C 284.145 9.382 280.458 12.093 275.909 12.093 L 0 12.093 C -4.549 12.093 -8.236 9.382 -8.236 6.046 C -8.236 2.711 -4.549 0 0 0 Z "/>
<path transform="matrix(1,0,0,-1,483.498,700.9193)" d="M 0 0 L 275.909 0 C 280.458 0 284.145 2.711 284.145 6.046 C 284.145 9.382 280.458 12.093 275.909 12.093 L 0 12.093 C -4.549 12.093 -8.236 9.382 -8.236 6.046 C -8.236 2.711 -4.549 0 0 0 "/>
<path transform="matrix(1,0,0,-1,483.498,700.9193)" stroke-width="7" stroke-linecap="butt" stroke-miterlimit="10" stroke-linejoin="miter" fill="none" stroke="#000000" d="M 0 0 L 275.909 0 C 280.458 0 284.145 2.711 284.145 6.046 C 284.145 9.382 280.458 12.093 275.909 12.093 L 0 12.093 C -4.549 12.093 -8.236 9.382 -8.236 6.046 C -8.236 2.711 -4.549 0 0 0 Z "/>
</g>
</g>
</g>
</svg>
