<?xml version="1.0" encoding="UTF-8" standalone="no"?>
<!DOCTYPE svg PUBLIC "-//W3C//DTD SVG 1.1//EN" "http://www.w3.org/Graphics/SVG/1.1/DTD/svg11.dtd">
<svg xmlns="http://www.w3.org/2000/svg" xmlns:xlink="http://www.w3.org/1999/xlink" version="1.1" width="566.929pt" height="566.929pt" viewBox="0 0 566.929 566.929">
<g enable-background="new">
<g id="Layer-1" data-name="Livello 1">
<clipPath id="cp0">
<path transform="matrix(1,0,0,-1,0,566.929)" d="M 0 566.929 L 566.929 566.929 L 566.929 0 L 0 0 Z "/>
</clipPath>
<g clip-path="url(#cp0)">
</g>
<g id="Layer-1" data-name="Livello 2">
</g>
<clipPath id="cp1">
<path transform="matrix(1,0,0,-1,0,566.929)" d="M 0 566.929 L 566.929 566.929 L 566.929 0 L 0 0 Z "/>
</clipPath>
<g clip-path="url(#cp1)">
</g>
<g id="Layer-1" data-name="Livello 3">
</g>
<clipPath id="cp2">
<path transform="matrix(1,0,0,-1,0,566.929)" d="M 0 566.929 L 566.929 566.929 L 566.929 0 L 0 0 Z "/>
</clipPath>
<g clip-path="url(#cp2)">
</g>
<g id="Layer-1" data-name="Livello 4">
</g>
<clipPath id="cp3">
<path transform="matrix(1,0,0,-1,0,566.929)" d="M 0 566.929 L 566.929 566.929 L 566.929 0 L 0 0 Z "/>
</clipPath>
<g clip-path="url(#cp3)">
<path transform="matrix(1,0,0,-1,312.1777,343.0448)" d="M 0 0 C -47.112 -16.942 -94.316 -12.317 -122.939 11.147 C -108.397 26.768 -93.637 40.133 -78.461 51.778 C -62.809 43.24 -29.427 34.437 6.599 25.433 C 7.153 25.292 7.714 25.226 8.262 25.226 C 11.327 25.226 14.112 27.296 14.887 30.408 C 15.809 34.068 13.578 37.781 9.911 38.696 C -12.666 44.343 -47.746 53.121 -65.942 60.849 C -22.167 91.5 25.278 110.303 80.646 132.125 L 89.195 135.498 C 92.708 136.88 94.431 140.854 93.042 144.368 C 91.659 147.887 87.665 149.624 84.173 148.214 L 75.631 144.848 C 39.756 130.708 7.16 117.796 -23.346 102.267 C -21.526 113.899 -18.905 130.42 -17.117 140.681 C -16.47 144.401 -18.961 147.947 -22.681 148.595 C -26.435 149.196 -29.947 146.745 -30.595 143.032 C -33.029 129.054 -37.01 103.456 -38.424 94.301 C -53.588 85.901 -68.232 76.551 -82.537 65.914 C -82.542 65.911 -82.545 65.907 -82.549 65.905 C -98.637 53.941 -114.285 40.179 -129.678 23.995 C -142.001 69.371 -130.775 110.271 -96.875 140 C -43.559 186.771 47.039 192.735 124.893 155.047 C 113.979 70.053 53.598 19.288 0 0 M 135.345 165.132 C 51.693 207.595 -47.506 201.498 -105.898 150.285 C -145.497 115.549 -157.843 65.365 -140.486 12.132 C -158.986 -8.907 -177.216 -33.613 -195.514 -63.723 C -197.477 -66.955 -196.449 -71.156 -193.223 -73.119 C -192.114 -73.794 -190.885 -74.114 -189.676 -74.114 C -187.365 -74.114 -185.115 -72.945 -183.826 -70.828 C -166.662 -42.584 -149.531 -19.252 -132.146 .749 C -112.536 -15.601 -86.136 -24.124 -56.682 -24.124 C -37.167 -24.124 -16.35 -20.417 4.636 -12.87 C 63.114 8.175 129.134 64.196 139.045 158.319 C 139.346 161.138 137.87 163.849 135.345 165.132 " fill="#231f20"/>
</g>
<g id="Layer-1" data-name="Livello 5">
</g>
<clipPath id="cp4">
<path transform="matrix(1,0,0,-1,0,566.929)" d="M 0 566.929 L 566.929 566.929 L 566.929 0 L 0 0 Z "/>
</clipPath>
<g clip-path="url(#cp4)">
</g>
<g id="Layer-1" data-name="Livello 6">
</g>
<clipPath id="cp5">
<path transform="matrix(1,0,0,-1,0,566.929)" d="M 0 566.929 L 566.929 566.929 L 566.929 0 L 0 0 Z "/>
</clipPath>
<g clip-path="url(#cp5)">
</g>
<g id="Layer-1" data-name="Livello 7">
</g>
<clipPath id="cp6">
<path transform="matrix(1,0,0,-1,0,566.929)" d="M 0 566.929 L 566.929 566.929 L 566.929 0 L 0 0 Z "/>
</clipPath>
<g clip-path="url(#cp6)">
</g>
</g>
</g>
</svg>
