<?xml version="1.0" encoding="UTF-8" standalone="no"?>
<!DOCTYPE svg PUBLIC "-//W3C//DTD SVG 1.1//EN" "http://www.w3.org/Graphics/SVG/1.1/DTD/svg11.dtd">
<svg xmlns="http://www.w3.org/2000/svg" xmlns:xlink="http://www.w3.org/1999/xlink" version="1.1" width="566.929pt" height="566.929pt" viewBox="0 0 566.929 566.929">
<g enable-background="new">
<g id="Layer-1" data-name="Livello 1">
<clipPath id="cp0">
<path transform="matrix(1,0,0,-1,0,566.929)" d="M 0 566.929 L 566.929 566.929 L 566.929 0 L 0 0 Z "/>
</clipPath>
<g clip-path="url(#cp0)">
<path transform="matrix(1,0,0,-1,476.7773,172.12973)" d="M 0 0 C -2.087 3.601 -6.693 4.832 -10.3 2.744 L -383.881 -213.644 C -387.482 -215.73 -388.711 -220.341 -386.625 -223.943 C -385.228 -226.355 -382.697 -227.704 -380.096 -227.704 C -378.814 -227.704 -377.515 -227.376 -376.326 -226.687 L -2.744 -10.299 C .856 -8.213 2.086 -3.602 0 0 " fill="#231f20"/>
<path transform="matrix(1,0,0,-1,370.1758,278.036)" d="M 0 0 C 0 4.163 -3.375 7.537 -7.536 7.537 C -11.698 7.537 -15.073 4.163 -15.073 0 C -15.073 -22.939 -14.861 -42.516 -14.674 -59.788 C -14.066 -115.769 -13.763 -143.867 -22.743 -152.832 C -29.021 -159.097 -43.565 -158.912 -67.666 -158.609 C -73.343 -158.538 -79.776 -158.457 -86.71 -158.457 C -126.417 -158.457 -148.29 -158.457 -155.04 -151.557 C -160.269 -146.212 -159.97 -132.562 -159.474 -109.947 C -159.301 -102.007 -159.103 -93.007 -159.103 -82.684 C -159.103 -78.521 -162.477 -75.147 -166.64 -75.147 C -170.803 -75.147 -174.177 -78.521 -174.177 -82.684 C -174.177 -92.841 -174.372 -101.753 -174.544 -109.617 C -175.146 -137.089 -175.478 -152.221 -165.815 -162.098 C -154.631 -173.53 -134.748 -173.53 -86.71 -173.53 C -79.871 -173.53 -73.489 -173.61 -67.856 -173.682 C -63.131 -173.741 -58.723 -173.797 -54.603 -173.797 C -34.27 -173.797 -21.048 -172.439 -12.094 -163.5 C 1.379 -150.051 1.093 -123.579 .398 -59.624 C .212 -42.391 0 -22.857 0 0 " fill="#231f20"/>
<path transform="matrix(1,0,0,-1,0,566.929)" d="M 234.438 436.76 L 332.491 436.76 L 332.491 401.84703 L 234.438 401.84703 Z M 195.375 265.424 C 195.375 261.261 198.75 257.887 202.912 257.887 C 207.074 257.887 210.449 261.261 210.449 265.424 C 210.449 340.454 237.063 383.485 283.465 383.485 L 286.301 383.486 C 302.316 383.498 311.965 383.511 318.93 378.905 C 326.066 374.186 332.347 363.654 341.327 341.338 C 342.88 337.477 347.27 335.606 351.133 337.16 C 354.994 338.714 356.864 343.104 355.311 346.966 C 347.259 366.973 340.551 379.249 332.937 386.774 L 338.928 386.774 C 343.69 386.774 347.564 390.648 347.564 395.411 L 347.564 443.197 C 347.564 447.959 343.69 451.833 338.928 451.833 L 228.001 451.833 C 223.238 451.833 219.365 447.959 219.365 443.197 L 219.365 395.411 C 219.365 390.648 223.238 386.774 228.001 386.774 L 241.951 386.774 C 212.209 367.422 195.375 325.013 195.375 265.424 " fill="#231f20"/>
</g>
<g id="Layer-1" data-name="Livello 2">
</g>
<clipPath id="cp1">
<path transform="matrix(1,0,0,-1,0,566.929)" d="M 0 566.929 L 566.929 566.929 L 566.929 0 L 0 0 Z "/>
</clipPath>
<g clip-path="url(#cp1)">
</g>
<g id="Layer-1" data-name="Livello 3">
</g>
<clipPath id="cp2">
<path transform="matrix(1,0,0,-1,0,566.929)" d="M 0 566.929 L 566.929 566.929 L 566.929 0 L 0 0 Z "/>
</clipPath>
<g clip-path="url(#cp2)">
</g>
<g id="Layer-1" data-name="Livello 4">
</g>
<clipPath id="cp3">
<path transform="matrix(1,0,0,-1,0,566.929)" d="M 0 566.929 L 566.929 566.929 L 566.929 0 L 0 0 Z "/>
</clipPath>
<g clip-path="url(#cp3)">
</g>
<g id="Layer-1" data-name="Livello 5">
</g>
<clipPath id="cp4">
<path transform="matrix(1,0,0,-1,0,566.929)" d="M 0 566.929 L 566.929 566.929 L 566.929 0 L 0 0 Z "/>
</clipPath>
<g clip-path="url(#cp4)">
</g>
<g id="Layer-1" data-name="Livello 6">
</g>
<clipPath id="cp5">
<path transform="matrix(1,0,0,-1,0,566.929)" d="M 0 566.929 L 566.929 566.929 L 566.929 0 L 0 0 Z "/>
</clipPath>
<g clip-path="url(#cp5)">
</g>
<g id="Layer-1" data-name="Livello 7">
</g>
<clipPath id="cp6">
<path transform="matrix(1,0,0,-1,0,566.929)" d="M 0 566.929 L 566.929 566.929 L 566.929 0 L 0 0 Z "/>
</clipPath>
<g clip-path="url(#cp6)">
</g>
</g>
</g>
</svg>
