<?xml version="1.0" encoding="utf-8"?>
<!-- Generator: Adobe Illustrator 25.4.1, SVG Export Plug-In . SVG Version: 6.00 Build 0)  -->
<svg version="1.1" id="Livello_1" xmlns="http://www.w3.org/2000/svg" xmlns:xlink="http://www.w3.org/1999/xlink" x="0px" y="0px"
	 viewBox="0 0 2000 2000" style="enable-background:new 0 0 2000 2000;" xml:space="preserve">
<style type="text/css">
	.st0{fill:#1D1D1B;}
</style>
<path class="st0" d="M1547.93,1086.82c-45.18,18.24-91.18,30.25-138.01,35.65c-126.82,15.74-239.14-17.82-316.22-94.91
	c-135.94-136.35-128.9-373,2.9-573.18c19.69-30.55,42.71-60.27,68.62-88.7c7.77-8.52,4.11-22.47-7.09-25.22
	c-38.55-9.45-78.63-15.49-119.56-17.88c-12.44-0.41-24.87-0.83-37.71-0.83c-373.83,0-678.04,304.21-678.04,678.03
	c0,374.24,304.21,678.45,678.04,678.45c313.32,0,577.73-213.85,654.82-503.55c11.17-41.3,18.47-83.69,21.44-127.42
	c0.84-12.36-13.03-20.08-23.56-13.56C1619.42,1054.86,1584.21,1072.85,1547.93,1086.82z M1000.87,1553.91
	c-305.45,0-553.7-248.67-553.7-554.11c0-290.11,224.22-528.83,508.94-551.62c-125.16,235.4-113.56,503.55,49.73,667.26
	c88.69,88.28,208.47,135.11,343.99,135.11c24.45,0,49.73-1.24,75.43-4.56c26.11-3.32,52.22-8.29,78.33-14.51
	C1416.14,1421.7,1223.83,1553.91,1000.87,1553.91z"/>
</svg>
