<?xml version="1.0" encoding="utf-8"?>
<!-- Generator: Adobe Illustrator 26.0.2, SVG Export Plug-In . SVG Version: 6.00 Build 0)  -->
<svg version="1.1" id="Livello_2_00000018925725972212276300000013910084535421949845_"
	 xmlns="http://www.w3.org/2000/svg" xmlns:xlink="http://www.w3.org/1999/xlink" x="0px" y="0px" viewBox="0 0 1920 1080"
	 style="enable-background:new 0 0 1920 1080;" xml:space="preserve">
<style type="text/css">
	.st0{fill:none;stroke:#000000;stroke-width:28;stroke-miterlimit:10;}
	.st1{stroke:#000000;stroke-width:10;stroke-miterlimit:10;}
</style>
<path class="st0" d="M679.06,466.26c0,18.83-0.02,37.65,0.01,56.48c0.01,8.22,3.09,14.91,9.02,20.82
	c51.33,51.11,102.51,102.39,153.75,153.6c10.74,10.73,21.7,10.72,32.55-0.11c30.06-30,60.07-60.04,90.1-90.07
	c9.3-9.3,18.69-18.52,27.9-27.92c9.12-9.31,9.12-20.81-0.09-30.04c-51.99-52.1-104.07-104.12-156.05-156.23
	c-5.43-5.44-11.97-7.69-19.34-7.72c-29.99-0.13-59.98-0.12-89.96-0.16c-7.5-0.01-14.99-0.06-22.49,0.02
	c-15.22,0.16-25.4,10.18-25.5,25.34c-0.12,18.66-0.03,37.32-0.03,55.98C678.97,466.26,679.02,466.26,679.06,466.26z"/>
<path class="st1" d="M741.3,475.22c15.22,0.31,27.84-11.9,28.05-27.15c0.21-15.33-11.78-27.85-27.06-28.24
	c-15.31-0.4-28.19,11.72-28.42,26.72C713.63,462.8,725.2,474.9,741.3,475.22z M755.25,447.61c0.05,7.6-5.85,13.57-13.5,13.66
	c-7.66,0.09-13.74-5.72-13.89-13.26c-0.16-7.96,5.74-14.14,13.47-14.14C749.36,433.87,755.2,439.64,755.25,447.61z"/>
</svg>
