<svg enable-background="new 0 0 1000 1000" viewBox="0 0 1000 1000" xmlns="http://www.w3.org/2000/svg"><g stroke="#000" stroke-miterlimit="10" stroke-width="8"><path d="m789.98 673.54h-86.11v-88.18c0-4.24-3.44-7.67-7.67-7.67-4.24 0-7.67 3.44-7.67 7.67v103.53h101.46c4.24 0 7.67-3.44 7.67-7.67-.01-4.25-3.45-7.68-7.68-7.68z"/><path d="m399.25 545.29c4.24 0 7.67-3.44 7.67-7.67 0-4.24-3.44-7.67-7.67-7.67h-164.62c-4.24 0-7.67 3.44-7.67 7.67 0 4.24 3.44 7.67 7.67 7.67z"/><path d="m234.59 690.92 164.71 1.03h.05c4.22 0 7.65-3.4 7.67-7.63.03-4.24-3.39-7.7-7.63-7.72l-164.71-1.03c-.02 0-.03 0-.05 0-4.22 0-7.65 3.4-7.67 7.63-.03 4.24 3.39 7.7 7.63 7.72z"/><path d="m475.01 796.27h-332.6v-375.15h633.44v-209.7h-146.67v-61.7c0-4.24-3.44-7.67-7.67-7.67s-7.67 3.44-7.67 7.67v61.7h-325.67v-61.29c0-4.24-3.44-7.67-7.67-7.67-4.24 0-7.67 3.44-7.67 7.67v61.29h-145.77v600.2h347.95c4.24 0 7.67-3.44 7.67-7.67s-3.43-7.68-7.67-7.68zm-332.6-569.5h130.42v88.72c0 4.24 3.44 7.67 7.67 7.67 4.24 0 7.67-3.44 7.67-7.67v-88.72h325.67v88.72c0 4.24 3.44 7.67 7.67 7.67s7.67-3.44 7.67-7.67v-88.72h131.32v179h-618.09z"/><path d="m696.19 504.46c-97.46 0-176.75 79.29-176.75 176.75s79.29 176.75 176.75 176.75 176.75-79.29 176.75-176.75-79.29-176.75-176.75-176.75zm0 338.15c-89 0-161.4-72.4-161.4-161.4s72.41-161.4 161.4-161.4 161.4 72.41 161.4 161.4-72.4 161.4-161.4 161.4z"/></g></svg>