<?xml version="1.0" encoding="UTF-8" standalone="no"?>
<!DOCTYPE svg PUBLIC "-//W3C//DTD SVG 1.1//EN" "http://www.w3.org/Graphics/SVG/1.1/DTD/svg11.dtd">
<svg xmlns="http://www.w3.org/2000/svg" xmlns:xlink="http://www.w3.org/1999/xlink" version="1.1" width="1000em" height="1000em" viewBox="0 0 1000 1000">
<g enable-background="new">
<g id="Layer-1" data-name="Livello 1">
<clipPath id="cp0">
<path transform="matrix(1,0,0,-1,0,1000)" d="M 0 1000 L 1000 1000 L 1000 0 L 0 0 Z "/>
</clipPath>
<g clip-path="url(#cp0)">
<path transform="matrix(1,0,0,-1,884.0519,727.35037)" d="M 0 0 L -105.275 0 C -109.444 0 -112.823 3.38 -112.823 7.548 L -112.823 115.575 C -112.823 121.079 -117.279 125.665 -122.913 125.665 C -128.417 125.665 -133.003 121.21 -133.003 115.575 L -133.003 -12.5 C -133.003 -16.669 -129.624 -20.049 -125.455 -20.049 L 0 -20.049 C 5.504 -20.049 10.09 -15.593 10.09 -9.959 C 10.09 -4.586 5.504 0 0 0 "/>
<path transform="matrix(1,0,0,-1,884.0519,727.35037)" stroke-width="9" stroke-linecap="butt" stroke-miterlimit="10" stroke-linejoin="miter" fill="none" stroke="#000000" d="M 0 0 L -105.275 0 C -109.444 0 -112.823 3.38 -112.823 7.548 L -112.823 115.575 C -112.823 121.079 -117.279 125.665 -122.913 125.665 C -128.417 125.665 -133.003 121.21 -133.003 115.575 L -133.003 -12.5 C -133.003 -16.669 -129.624 -20.049 -125.455 -20.049 L 0 -20.049 C 5.504 -20.049 10.09 -15.593 10.09 -9.959 C 10.09 -4.586 5.504 0 0 0 Z "/>
<path transform="matrix(1,0,0,-1,371.9569,559.36)" d="M 0 0 C 5.504 0 10.09 4.455 10.09 10.09 C 10.09 15.594 5.635 20.18 0 20.18 L -215.688 20.18 C -221.191 20.18 -225.778 15.725 -225.778 10.09 C -225.778 4.586 -221.323 0 -215.688 0 Z "/>
<path transform="matrix(1,0,0,-1,371.9569,559.36)" stroke-width="9" stroke-linecap="butt" stroke-miterlimit="10" stroke-linejoin="miter" fill="none" stroke="#000000" d="M 0 0 C 5.504 0 10.09 4.455 10.09 10.09 C 10.09 15.594 5.635 20.18 0 20.18 L -215.688 20.18 C -221.191 20.18 -225.778 15.725 -225.778 10.09 C -225.778 4.586 -221.323 0 -215.688 0 L 0 0 Z "/>
<path transform="matrix(1,0,0,-1,156.269,750.1508)" d="M 0 0 L 215.819 -1.31 C 221.323 -1.31 225.778 3.145 225.909 8.648 C 225.909 14.152 221.454 18.738 215.95 18.738 L .131 20.049 L 0 20.049 C -5.504 20.049 -9.959 15.593 -10.09 10.09 C -10.09 4.586 -5.504 0 0 0 "/>
<path transform="matrix(1,0,0,-1,156.269,750.1508)" stroke-width="9" stroke-linecap="butt" stroke-miterlimit="10" stroke-linejoin="miter" fill="none" stroke="#000000" d="M 0 0 L 215.819 -1.31 C 221.323 -1.31 225.778 3.145 225.909 8.648 C 225.909 14.152 221.454 18.738 215.95 18.738 L .131 20.049 L 0 20.049 C -5.504 20.049 -9.959 15.593 -10.09 10.09 C -10.09 4.586 -5.504 0 0 0 Z "/>
<path transform="matrix(1,0,0,-1,39.7097,139.01001)" d="M 0 0 L 160.589 0 L 160.589 -117.293 C 160.589 -122.847 165.085 -127.475 170.771 -127.475 C 176.325 -127.475 180.954 -122.979 180.954 -117.293 L 180.954 0 L 611.645 0 L 611.645 -117.293 C 611.645 -123.015 616.417 -127.754 622.346 -127.462 C 627.822 -127.193 632.01 -122.433 632.01 -116.951 L 632.01 0 L 793.789 0 C 800.331 0 805.635 -5.304 805.635 -11.846 L 805.635 -224.856 C 805.635 -231.398 800.331 -236.702 793.789 -236.702 L 0 -236.702 C -6.542 -236.702 -11.846 -231.398 -11.846 -224.856 L -11.846 -11.846 C -11.846 -5.304 -6.542 0 0 0 M 427.97 -753.082 L 0 -753.082 C -6.542 -753.082 -11.846 -747.779 -11.846 -741.236 L -11.846 -268.78 C -11.846 -262.238 -6.542 -256.934 0 -256.934 L 813.889 -256.934 C 820.431 -256.934 825.735 -251.63 825.735 -245.088 L 825.735 8.518 C 825.735 15.061 820.431 20.364 813.889 20.364 L 631.877 20.364 L 631.877 101.954 C 631.877 107.675 627.105 112.415 621.177 112.123 C 615.701 111.854 611.513 107.094 611.513 101.612 L 611.513 20.364 L 180.954 20.364 L 180.954 101.425 C 180.954 106.979 176.458 111.607 170.771 111.607 C 165.217 111.607 160.589 107.111 160.589 101.425 L 160.589 20.364 L -20.232 20.364 C -26.774 20.364 -32.078 15.061 -32.078 8.518 L -32.078 -761.468 C -32.078 -768.011 -26.774 -773.314 -20.232 -773.314 L 428.102 -773.314 C 433.656 -773.314 438.284 -768.818 438.284 -763.132 C 438.284 -757.446 433.524 -753.082 427.97 -753.082 "/>
<path transform="matrix(1,0,0,-1,39.7097,139.01001)" stroke-width="9" stroke-linecap="butt" stroke-miterlimit="10" stroke-linejoin="miter" fill="none" stroke="#000000" d="M 0 0 L 160.589 0 L 160.589 -117.293 C 160.589 -122.847 165.085 -127.475 170.771 -127.475 C 176.325 -127.475 180.954 -122.979 180.954 -117.293 L 180.954 0 L 611.645 0 L 611.645 -117.293 C 611.645 -123.015 616.417 -127.754 622.346 -127.462 C 627.822 -127.193 632.01 -122.433 632.01 -116.951 L 632.01 0 L 793.789 0 C 800.331 0 805.635 -5.304 805.635 -11.846 L 805.635 -224.856 C 805.635 -231.398 800.331 -236.702 793.789 -236.702 L 0 -236.702 C -6.542 -236.702 -11.846 -231.398 -11.846 -224.856 L -11.846 -11.846 C -11.846 -5.304 -6.542 0 0 0 Z M 427.97 -753.082 L 0 -753.082 C -6.542 -753.082 -11.846 -747.779 -11.846 -741.236 L -11.846 -268.78 C -11.846 -262.238 -6.542 -256.934 0 -256.934 L 813.889 -256.934 C 820.431 -256.934 825.735 -251.63 825.735 -245.088 L 825.735 8.518 C 825.735 15.061 820.431 20.364 813.889 20.364 L 631.877 20.364 L 631.877 101.954 C 631.877 107.675 627.105 112.415 621.177 112.123 C 615.701 111.854 611.513 107.094 611.513 101.612 L 611.513 20.364 L 180.954 20.364 L 180.954 101.425 C 180.954 106.979 176.458 111.607 170.771 111.607 C 165.217 111.607 160.589 107.111 160.589 101.425 L 160.589 20.364 L -20.232 20.364 C -26.774 20.364 -32.078 15.061 -32.078 8.518 L -32.078 -761.468 C -32.078 -768.011 -26.774 -773.314 -20.232 -773.314 L 428.102 -773.314 C 433.656 -773.314 438.284 -768.818 438.284 -763.132 C 438.284 -757.446 433.524 -753.082 427.97 -753.082 Z "/>
<path transform="matrix(1,0,0,-1,761.1386,948.9348)" d="M 0 0 C -116.623 0 -211.495 94.871 -211.495 211.495 C -211.495 328.118 -116.623 422.989 0 422.989 C 116.624 422.989 211.495 328.118 211.495 211.495 C 211.495 94.871 116.623 0 0 0 M 0 443.038 C -127.762 443.038 -231.674 339.125 -231.674 211.495 C -231.674 83.864 -127.762 -20.18 0 -20.18 C 127.762 -20.18 231.674 83.733 231.674 211.495 C 231.674 339.256 127.762 443.038 0 443.038 "/>
<path transform="matrix(1,0,0,-1,761.1386,948.9348)" stroke-width="9" stroke-linecap="butt" stroke-miterlimit="10" stroke-linejoin="miter" fill="none" stroke="#000000" d="M 0 0 C -116.623 0 -211.495 94.871 -211.495 211.495 C -211.495 328.118 -116.623 422.989 0 422.989 C 116.624 422.989 211.495 328.118 211.495 211.495 C 211.495 94.871 116.623 0 0 0 Z M 0 443.038 C -127.762 443.038 -231.674 339.125 -231.674 211.495 C -231.674 83.864 -127.762 -20.18 0 -20.18 C 127.762 -20.18 231.674 83.733 231.674 211.495 C 231.674 339.256 127.762 443.038 0 443.038 Z "/>
</g>
</g>
</g>
</svg>
