<?xml version="1.0" encoding="UTF-8" standalone="no"?>
<!DOCTYPE svg PUBLIC "-//W3C//DTD SVG 1.1//EN" "http://www.w3.org/Graphics/SVG/1.1/DTD/svg11.dtd">
<svg xmlns="http://www.w3.org/2000/svg" xmlns:xlink="http://www.w3.org/1999/xlink" version="1.1" width="1000em" height="1000em" viewBox="0 0 1000 1000">
<g enable-background="new">
<g id="Layer-1" data-name="Livello 1">
<clipPath id="cp0">
<path transform="matrix(1,0,0,-1,0,1000)" d="M 0 0 L 1000 0 L 1000 1000 L 0 1000 Z "/>
</clipPath>
<g clip-path="url(#cp0)">
<path transform="matrix(1,0,0,-1,921.614,370.31953)" d="M 0 0 L -50.608 0 L -74.097 123.848 L 41.329 124.21 Z M -93.606 -281.332 L -131.221 -281.332 L -153.552 -163.589 L -54.429 -163.589 Z M -664.833 -163.589 L -554.178 -163.589 L -531.846 -281.332 L -639.45 -281.332 Z M -608.378 122.171 L -585.207 0 L -700.098 0 L -726.353 121.8 Z M -184.581 0 L -207.99 123.428 L -101.426 123.763 L -77.952 0 Z M -285.938 -136.722 L -306.773 -26.868 L -206.83 -26.868 L -185.995 -136.722 Z M -334.119 -26.868 L -313.283 -136.722 L -411.295 -136.722 L -432.13 -26.868 Z M -235.32 123.342 L -211.925 0 L -311.87 0 L -335.204 123.027 Z M -362.533 122.942 L -339.215 0 L -437.227 0 L -460.486 122.635 Z M -487.815 122.548 L -464.572 0 L -557.861 0 L -581.048 122.256 Z M -552.764 -26.868 L -459.475 -26.868 L -438.64 -136.722 L -531.929 -136.722 Z M -694.305 -26.868 L -580.11 -26.868 L -559.275 -136.722 L -670.624 -136.722 Z M -504.501 -281.332 L -526.834 -163.589 L -433.544 -163.589 L -411.213 -281.332 Z M -383.866 -281.332 L -406.199 -163.589 L -308.187 -163.589 L -285.856 -281.332 Z M -258.509 -281.332 L -280.842 -163.589 L -180.898 -163.589 L -158.566 -281.332 Z M -52.023 -136.722 L -158.649 -136.722 L -179.484 -26.868 L -72.857 -26.868 Z M -32.234 -96.88 L -45.511 -26.868 L -8.939 -26.868 Z M 70.863 145.577 C 68.339 149.069 64.288 151.137 59.979 151.137 L 59.937 151.137 L -732.141 148.649 L -758.463 270.732 C -759.797 276.919 -765.265 281.335 -771.593 281.335 L -904.424 281.335 C -911.843 281.335 -917.858 275.321 -917.858 267.902 C -917.858 260.481 -911.843 254.466 -904.424 254.466 L -782.441 254.466 L -756.171 132.614 C -756.134 132.428 -756.097 132.242 -756.055 132.058 L -694.638 -152.845 C -694.635 -152.858 -694.633 -152.873 -694.63 -152.884 L -663.433 -297.597 C -662.094 -303.785 -656.627 -308.2 -650.298 -308.2 L -517.514 -308.2 C -516.888 -308.292 -516.256 -308.368 -515.61 -308.368 C -515.027 -308.368 -514.432 -308.279 -513.839 -308.2 L -396.88 -308.2 C -396.254 -308.292 -395.622 -308.368 -394.975 -308.368 C -394.393 -308.368 -393.797 -308.279 -393.206 -308.2 L -271.524 -308.2 C -270.896 -308.292 -270.265 -308.368 -269.619 -308.368 C -269.035 -308.368 -268.44 -308.279 -267.848 -308.2 L -144.236 -308.2 C -143.607 -308.292 -142.976 -308.368 -142.331 -308.368 C -141.747 -308.368 -141.153 -308.279 -140.559 -308.2 L -83.917 -308.2 C -78.135 -308.2 -72.998 -304.498 -71.171 -299.007 L 72.727 133.462 C 74.091 137.563 73.397 142.074 70.863 145.577 " fill="#231f20"/>
<path transform="matrix(1,0,0,-1,375.6196,820.5331)" d="M 0 0 C -12.559 -34.499 -52.052 -63.645 -86.241 -63.645 C -100.247 -63.645 -111.42 -58.701 -117.706 -49.722 C -124.718 -39.712 -125.447 -24.937 -119.716 -9.189 C -107.158 25.307 -67.664 54.453 -33.475 54.453 C -19.468 54.453 -8.297 49.509 -2.01 40.53 C 5.001 30.52 5.73 15.748 0 0 M -33.475 81.32 C -79.393 81.32 -128.364 45.6 -144.968 0 C -153.737 -24.102 -151.821 -47.843 -139.715 -65.135 C -128.254 -81.5 -109.263 -90.512 -86.241 -90.512 C -40.324 -90.512 8.649 -54.792 25.252 -9.189 C 34.021 14.911 32.106 38.651 19.999 55.941 C 8.538 72.308 -10.454 81.32 -33.475 81.32 " fill="#231f20"/>
<path transform="matrix(1,0,0,-1,852.473,820.5331)" d="M 0 0 C -12.552 -34.499 -52.041 -63.645 -86.236 -63.645 C -100.242 -63.645 -111.418 -58.698 -117.706 -49.719 C -124.711 -39.709 -125.446 -24.937 -119.71 -9.189 C -107.158 25.31 -67.663 54.453 -33.475 54.453 C -19.468 54.453 -8.292 49.506 -2.004 40.528 C 5.008 30.52 5.736 15.748 0 0 M -33.475 81.32 C -79.397 81.32 -128.364 45.6 -144.962 0 C -153.731 -24.1 -151.821 -47.838 -139.715 -65.13 C -128.254 -81.498 -109.263 -90.512 -86.236 -90.512 C -40.312 -90.512 8.654 -54.792 25.252 -9.189 C 34.022 14.908 32.111 38.648 20.004 55.938 C 8.543 72.308 -10.447 81.32 -33.475 81.32 " fill="#231f20"/>
</g>
</g>
</g>
</svg>
