<?xml version="1.0" encoding="UTF-8" standalone="no"?>
<!DOCTYPE svg PUBLIC "-//W3C//DTD SVG 1.1//EN" "http://www.w3.org/Graphics/SVG/1.1/DTD/svg11.dtd">
<svg xmlns="http://www.w3.org/2000/svg" xmlns:xlink="http://www.w3.org/1999/xlink" version="1.1" width="100%" height="100%" viewBox="0 0 1000 1000">
<g enable-background="new">
<g id="Layer-1" data-name="Livello 1">
<clipPath id="cp0">
<path transform="matrix(1,0,0,-1,0,1000)" d="M 0 1000 L 1000 1000 L 1000 0 L 0 0 Z "/>
</clipPath>
<g clip-path="url(#cp0)">
<path transform="matrix(1,0,0,-1,617.54,866.1377)" d="M 0 0 C -22.813 47.777 -40.886 91.342 -55.355 133.071 C 42.938 172.659 35.272 262.694 28.155 293.729 C 28.155 293.729 -62.28 267.154 -67.287 169.715 C -75.437 196.456 -82.204 222.744 -87.93 249.234 C 11.371 304.799 -12.605 396.354 -25.301 426.538 C -25.301 426.538 -97.424 390.95 -99.14 309.208 C -103.053 333.646 -106.321 358.69 -109.202 384.785 L 175.253 669.24 C 325.596 509.456 322.787 257.218 166.601 101.029 C 119.211 53.642 62.201 19.402 0 0 M -122.057 -18.537 C -226.895 -18.537 -325.63 20.814 -401.62 92.368 L -206.96 287.027 C -190.768 259.514 -159.813 229.917 -101.343 228.359 C -95.452 203.161 -88.551 178.003 -80.367 152.345 C -116.159 205.732 -177.886 210.209 -203.072 208.769 C -203.072 208.769 -189.229 90.942 -58.197 89.628 C -46.557 59.636 -32.942 28.347 -17.125 -4.899 C -50.953 -13.836 -86.136 -18.537 -122.057 -18.537 M -124.5 363.601 C -120.495 330.208 -115.706 298.399 -109.634 267.159 C -123.892 298.908 -146.736 316.02 -168.957 325.03 L -130.036 363.952 C -128.182 363.843 -126.398 363.668 -124.5 363.601 M -410.713 678.344 C -333.609 755.446 -231.097 797.91 -122.057 797.91 C -17.218 797.91 81.518 758.559 157.507 687.005 L -112.514 416.985 C -113.288 425.062 -114.046 433.213 -114.772 441.532 C -14.176 479.266 -20.476 570.209 -27.162 601.52 C -27.162 601.52 -100.194 581.238 -119.961 506.865 C -121.768 531.454 -123.547 557.187 -125.425 584.412 L -125.624 587.289 C -50.068 672.242 -99.265 754.614 -120.57 780.924 C -120.57 780.924 -207.363 701.178 -143.693 593.804 L -142.961 583.203 C -141.783 566.106 -140.643 549.595 -139.51 533.567 C -160.595 582.604 -225.036 607.721 -252.583 615.794 C -252.583 615.794 -278.233 528.833 -135.594 480.395 C -133.689 455.788 -131.695 432.348 -129.494 409.769 C -166.149 494.198 -251.798 500.674 -284.382 498.768 C -284.382 498.768 -271.806 391.71 -161.451 368.048 L -196.782 332.717 C -207.817 334.488 -217.441 334.648 -224.086 334.292 C -224.086 334.292 -222.923 324.693 -218.201 311.297 L -419.375 110.123 C -490.93 186.112 -530.28 284.848 -530.28 389.687 C -530.28 498.727 -487.818 601.239 -410.713 678.344 M 184.356 696.099 C 102.514 777.947 -6.306 823.023 -122.057 823.023 C -237.807 823.023 -346.626 777.947 -428.469 696.099 C -510.317 614.254 -555.393 505.434 -555.393 389.687 C -555.393 273.938 -510.317 165.119 -428.469 83.273 C -346.626 1.426 -237.807 -43.649 -122.057 -43.649 C -82.262 -43.649 -43.327 -38.198 -5.986 -27.881 C 3.214 -46.531 13.035 -65.758 23.716 -85.855 C 25.992 -90.142 31.314 -91.771 35.602 -89.492 C 36.404 -89.065 37.113 -88.532 37.723 -87.917 C 40.36 -85.256 41.089 -81.09 39.238 -77.606 C 29.169 -58.658 19.817 -40.438 11.082 -22.794 C 75.714 -2.009 134.967 33.882 184.356 83.273 C 353.314 252.229 353.314 527.143 184.356 696.099 " fill="#231f20"/>
</g>
</g>
</g>
</svg>
