<?xml version="1.0" encoding="UTF-8" standalone="no"?>
<!DOCTYPE svg PUBLIC "-//W3C//DTD SVG 1.1//EN" "http://www.w3.org/Graphics/SVG/1.1/DTD/svg11.dtd">
<svg xmlns="http://www.w3.org/2000/svg" xmlns:xlink="http://www.w3.org/1999/xlink" version="1.1" width="100%" height="100%" viewBox="0 0 1000 1000">
<g enable-background="new">
<g id="Layer-1" data-name="Livello 1">
<clipPath id="cp0">
<path transform="matrix(1,0,0,-1,0,1000)" d="M 0 1000 L 1000 1000 L 1000 0 L 0 0 Z "/>
</clipPath>
<g clip-path="url(#cp0)">
<path transform="matrix(1,0,0,-1,656.416,309.64503)" d="M 0 0 C 53.789 -55.492 98.278 -125.188 103.432 -138.074 C 105.325 -142.808 109.896 -145.809 114.851 -145.809 C 115.571 -145.809 116.307 -145.747 117.037 -145.615 C 122.79 -144.579 127.015 -139.641 127.154 -133.799 C 128.417 -80.833 143.416 -23.233 163.539 30.708 C 214.547 7.84 250.184 -43.38 250.184 -102.802 C 250.184 -183.453 184.572 -249.065 103.922 -249.065 C 23.271 -249.065 -42.341 -183.453 -42.341 -102.802 C -42.341 -62.761 -26.156 -26.438 0 0 M 140.085 38.928 C 124.149 -3.774 111.277 -49.174 105.604 -93.771 C 85.99 -63.925 54.528 -21.225 18.712 15.964 C 42.727 33.242 72.144 43.46 103.922 43.46 C 116.399 43.46 128.514 41.882 140.085 38.928 M -576.457 -178.591 L -49.162 -178.591 C -21.18 -234.88 36.912 -273.671 103.922 -273.671 C 198.14 -273.671 274.791 -197.02 274.791 -102.802 C 274.791 -32.955 232.646 27.203 172.466 53.669 C 207.813 140.649 253.839 214.371 272.119 237.379 C 276.349 242.7 275.459 250.44 270.139 254.667 C 264.833 258.889 257.081 258.005 252.856 252.687 C 239.104 235.377 187.935 157.524 149.064 61.97 C 134.674 65.917 119.549 68.067 103.922 68.067 C 65.308 68.067 29.657 55.177 1.012 33.495 C -11.752 45.524 -24.874 56.592 -38.088 65.842 C -43.653 69.74 -51.323 68.384 -55.221 62.819 C -59.119 57.253 -57.764 49.581 -52.198 45.686 C -40.558 37.537 -28.915 27.851 -17.529 17.246 C -48.059 -13.637 -66.948 -56.05 -66.948 -102.802 C -66.948 -120.626 -64.195 -137.817 -59.108 -153.984 L -576.457 -153.984 C -583.252 -153.984 -588.76 -159.492 -588.76 -166.288 C -588.76 -173.083 -583.252 -178.591 -576.457 -178.591 " fill="#231f20"/>
<path transform="matrix(1,0,0,-1,918.9033,616.8916)" d="M 0 0 L -706.085 0 C -712.881 0 -718.389 -5.508 -718.389 -12.304 C -718.389 -19.1 -712.881 -24.607 -706.085 -24.607 L 0 -24.607 C 6.796 -24.607 12.304 -19.1 12.304 -12.304 C 12.304 -5.508 6.796 0 0 0 " fill="#231f20"/>
<path transform="matrix(1,0,0,-1,777.3896,782.4551)" d="M 0 0 C 0 6.796 -5.508 12.303 -12.304 12.303 L -697.43 12.303 C -704.226 12.303 -709.733 6.796 -709.733 0 C -709.733 -6.796 -704.226 -12.304 -697.43 -12.304 L -12.304 -12.304 C -5.508 -12.304 0 -6.796 0 0 " fill="#231f20"/>
<path transform="matrix(1,0,0,-1,918.9033,923.4141)" d="M 0 0 L -680.094 0 C -686.89 0 -692.397 -5.508 -692.397 -12.304 C -692.397 -19.1 -686.89 -24.607 -680.094 -24.607 L 0 -24.607 C 6.796 -24.607 12.304 -19.1 12.304 -12.304 C 12.304 -5.508 6.796 0 0 0 " fill="#231f20"/>
</g>
</g>
</g>
</svg>
