<?xml version="1.0" standalone="no"?>
<!DOCTYPE svg PUBLIC "-//W3C//DTD SVG 20010904//EN"
 "http://www.w3.org/TR/2001/REC-SVG-20010904/DTD/svg10.dtd">
<svg version="1.0" xmlns="http://www.w3.org/2000/svg"
 width="2013.000000pt" height="1016.000000pt" viewBox="0 0 2013.000000 1016.000000"
 preserveAspectRatio="xMidYMid meet">

<g transform="translate(0.000000,1016.000000) scale(0.100000,-0.100000)"
fill="#000000" stroke="none">
<path d="M1619 10146 c-155 -33 -293 -109 -392 -216 -143 -155 -212 -382 -178
-586 7 -41 33 -119 62 -185 28 -63 77 -176 110 -252 188 -436 435 -865 759
-1322 51 -71 95 -136 98 -145 3 -8 30 -48 60 -89 45 -61 52 -76 40 -86 -7 -7
-256 -172 -553 -367 -477 -314 -727 -478 -1276 -841 -168 -111 -236 -178 -286
-282 -112 -236 -66 -500 121 -685 100 -100 269 -169 412 -170 68 0 193 29 246
57 19 10 328 212 686 448 1040 686 1345 886 1373 900 26 14 27 12 155 -133
291 -332 865 -887 1244 -1204 237 -199 572 -435 860 -608 85 -51 158 -96 163
-100 4 -3 -259 -467 -585 -1031 -387 -669 -600 -1048 -616 -1094 -35 -102 -39
-201 -13 -304 39 -156 101 -254 214 -338 197 -146 423 -166 641 -56 144 73
128 47 770 1163 319 553 595 1029 613 1059 19 29 32 59 29 67 -3 8 28 -1 77
-23 941 -406 1922 -649 2912 -721 l100 -7 5 -1260 5 -1260 22 -65 c46 -133
133 -245 245 -318 164 -106 381 -122 569 -41 106 46 229 165 283 274 58 119
56 58 56 1416 l1 1249 22 4 c12 3 67 8 122 11 144 9 443 42 640 71 738 109
1421 302 2160 609 l149 62 16 -27 c8 -15 285 -495 615 -1066 665 -1153 647
-1124 791 -1197 218 -110 444 -90 641 56 113 84 175 182 214 338 26 103 22
202 -13 304 -16 46 -229 425 -616 1094 -326 563 -591 1025 -590 1026 180 96
569 351 788 516 451 340 1062 919 1510 1431 101 115 103 117 129 103 28 -14
333 -214 1373 -900 358 -236 667 -438 686 -448 53 -28 178 -57 246 -57 143 1
312 70 412 170 187 185 233 449 121 685 -50 104 -118 171 -286 282 -549 363
-799 527 -1276 841 -297 195 -546 360 -553 367 -10 9 17 54 140 226 388 542
626 949 827 1416 33 76 82 189 110 252 29 66 55 144 62 185 34 204 -35 431
-178 586 -104 112 -241 186 -407 217 -101 19 -195 12 -302 -22 -113 -35 -195
-88 -280 -178 -66 -70 -83 -97 -151 -240 -282 -590 -503 -969 -843 -1445 -490
-686 -854 -1124 -1325 -1598 -425 -427 -734 -689 -1105 -940 -639 -432 -1553
-858 -2300 -1074 -1378 -397 -2882 -397 -4260 0 -747 216 -1661 642 -2300
1074 -371 251 -680 513 -1105 940 -471 474 -835 912 -1325 1598 -340 476 -561
855 -843 1445 -68 143 -85 170 -151 240 -42 44 -101 94 -137 116 -135 80 -317
113 -460 83z"/>
</g>
</svg>
