<?xml version="1.0" encoding="utf-8"?>
<!-- Generator: Adobe Illustrator 25.4.1, SVG Export Plug-In . SVG Version: 6.00 Build 0)  -->
<svg version="1.1" id="Livello_1" xmlns="http://www.w3.org/2000/svg" xmlns:xlink="http://www.w3.org/1999/xlink" x="0px" y="0px"
	 viewBox="0 0 1000 1000" style="enable-background:new 0 0 1000 1000;" xml:space="preserve">
<style type="text/css">
	.st0{stroke:#000000;stroke-miterlimit:10;}
</style>
<g>
	<path class="st0" d="M937.78,442.49c-0.06-0.21-0.16-0.4-0.24-0.6c-0.1-0.24-0.17-0.49-0.31-0.73c-0.13-0.24-0.32-0.45-0.48-0.67
		c-0.14-0.18-0.25-0.38-0.41-0.55c-0.35-0.39-0.75-0.75-1.2-1.08c0,0-0.01-0.01-0.01-0.01L696.5,263.57
		c-1.81-1.33-4.27-2.08-6.84-2.08l-603.52-0.27h0h0h-0.02c0,0,0,0-0.01,0c-0.6,0-1.19,0.05-1.77,0.13
		c-0.13,0.02-0.26,0.04-0.39,0.06c-0.48,0.08-0.95,0.19-1.41,0.32c-0.09,0.03-0.18,0.05-0.27,0.08c-1.11,0.35-2.12,0.86-2.98,1.48
		c-0.01,0-0.01,0.01-0.02,0.01c-0.88,0.65-1.62,1.41-2.12,2.3c-0.58,1.03-0.8,2.12-0.71,3.19v326.95c0,1.89,1.02,3.69,2.84,5.03
		l238.96,175.52c0,0,0,0,0,0l0,0c0,0,0.01,0,0.01,0.01c0.45,0.33,0.94,0.62,1.46,0.88c0.25,0.12,0.51,0.2,0.77,0.31
		c0.3,0.12,0.58,0.25,0.9,0.35c0.32,0.1,0.66,0.16,1,0.23c0.27,0.06,0.53,0.14,0.81,0.18c0.63,0.09,1.26,0.14,1.9,0.14h603.18
		c5.35,0,9.68-3.18,9.68-7.11v-327.4C937.97,443.41,937.9,442.95,937.78,442.49z M685.65,275.71l219.27,161.05h-575.8l-49.8-36.58
		c0,0-0.01-0.01-0.01-0.01l-90.96-66.81l-78.84-57.91L685.65,275.71z M170.74,340.55l92.04,67.6v91.9l-41.57-80.56
		c-1.19-2.23-1.81-3.21-5.17-4.26c-0.63-0.2-2.78-0.43-3.44-0.43c-2.54,0-6.55,0.37-8.39,1.72l-33.47,34.46V340.55z M95.82,285.52
		l55.55,40.8v137.65c0,2.88,0.35,14.23,8.03,14.23c3.77,0,11.07-5.67,13.84-7.7l35.98-38.35l54.22,108.15
		c1.47,2.76,5.09,4.52,9.01,4.52c0.6,0,1.2-0.04,1.8-0.12c4.57-0.63,7.88-3.57,7.88-6.99V422.38l33.28,24.45v307.29l-219.6-161.3
		V285.52z M918.6,764.17H334.78V450.99H918.6V764.17z"/>
	<path class="st0" d="M429.89,538.8c8.31,0,15.05-6.6,15.05-14.74c0-8.14-6.74-14.74-15.05-14.74c-8.31,0-15.05,6.6-15.05,14.74
		C414.84,532.2,421.58,538.8,429.89,538.8z"/>
	<path class="st0" d="M429.89,594.64c8.31,0,15.05-6.6,15.05-14.74c0-8.14-6.74-14.74-15.05-14.74c-8.31,0-15.05,6.6-15.05,14.74
		C414.84,588.04,421.58,594.64,429.89,594.64z"/>
	<path class="st0" d="M429.89,650.48c8.31,0,15.05-6.6,15.05-14.74c0-8.14-6.74-14.74-15.05-14.74c-8.31,0-15.05,6.6-15.05,14.74
		C414.84,643.88,421.58,650.48,429.89,650.48z"/>
	<path class="st0" d="M429.89,706.32c8.31,0,15.05-6.6,15.05-14.74c0-8.14-6.74-14.74-15.05-14.74c-8.31,0-15.05,6.6-15.05,14.74
		C414.84,699.72,421.58,706.32,429.89,706.32z"/>
	<path class="st0" d="M492.64,529.43h243.22c4.01,0,7.26-2.39,7.26-5.33s-3.25-5.33-7.26-5.33H492.64c-4.01,0-7.26,2.39-7.26,5.33
		S488.63,529.43,492.64,529.43z"/>
	<path class="st0" d="M492.64,585.26h243.22c4.01,0,7.26-2.39,7.26-5.33s-3.25-5.33-7.26-5.33H492.64c-4.01,0-7.26,2.39-7.26,5.33
		S488.63,585.26,492.64,585.26z"/>
	<path class="st0" d="M492.64,641.09h243.22c4.01,0,7.26-2.39,7.26-5.33s-3.25-5.33-7.26-5.33H492.64c-4.01,0-7.26,2.39-7.26,5.33
		S488.63,641.09,492.64,641.09z"/>
	<path class="st0" d="M492.64,696.92h243.22c4.01,0,7.26-2.39,7.26-5.33s-3.25-5.33-7.26-5.33H492.64c-4.01,0-7.26,2.39-7.26,5.33
		S488.63,696.92,492.64,696.92z"/>
</g>
</svg>
