<?xml version="1.0" encoding="utf-8"?>
<!-- Generator: Adobe Illustrator 26.0.2, SVG Export Plug-In . SVG Version: 6.00 Build 0)  -->
<svg version="1.1" id="Livello_1" xmlns="http://www.w3.org/2000/svg" xmlns:xlink="http://www.w3.org/1999/xlink" x="0px" y="0px"
	 viewBox="0 0 841.89 595.28" style="enable-background:new 0 0 841.89 595.28;" xml:space="preserve">
<path d="M305.18,383.66c1.76,11.36,3.41,22.03,5.09,32.85c5.8-1.72,10.95-3.83,16.3-4.74c28.58-4.85,52.38,3.17,69.93,26.97
	c1.8,2.44,3.63,3.47,6.65,3.46c28.34-0.09,56.69-0.07,85.03-0.03c2.55,0,4.5-0.37,6.09-2.81c24.68-37.97,83.72-39.38,112.69-1.33
	c24.26,31.86,17.28,77.36-15.89,101.17c-31.7,22.75-77.17,13.9-99.56-19.41c-8.25-12.28-11.97-25.85-11.3-40.63
	c0.02-0.54-0.07-1.09-0.13-1.99c-23.11,0-46.11,0-69.24,0c-0.26,4.57-0.27,9.07-0.81,13.51c-4.4,35.98-36.47,62.77-72.97,61.05
	c-36.89-1.74-66.05-30.79-67.46-67.09c-0.51-13.07,2.39-25.27,8.34-36.88c1-1.96,1.43-4.62,1.09-6.79
	c-7.94-50.53-16.03-101.03-24.08-151.55c-9.01-56.53-18.01-113.05-27-169.58c-1.03-6.51-0.97-6.52-7.48-6.53
	c-15.45-0.02-30.9,0.09-46.34-0.11c-7.81-0.1-14.14-5.5-15.93-12.92c-1.87-7.77,1.2-15.65,8.14-19.24c2.78-1.44,6.19-2.3,9.32-2.33
	c21.68-0.19,43.36-0.17,65.05-0.07c9.87,0.05,16.68,6.37,18.34,16.65c3.77,23.36,7.62,46.71,11.19,70.09
	c0.61,4.02,1.95,5.33,6.14,5.31c47.76-0.17,95.52-0.15,143.28-0.14c10.46,0,17.32,4.88,19.44,13.65
	c2.71,11.19-5.48,21.65-16.97,21.65c-46.63,0-93.25,0-139.88,0c-5.47,0-5.46,0.02-4.6,5.43c6.95,43.51,13.89,87.02,20.83,130.54
	c1.04,6.49,1.02,6.5,7.52,6.5c91.55,0,183.1,0,274.65,0c6.08,0,6.01-0.02,6.92-6.14c2.23-14.99,4.3-30.02,6.88-44.95
	c2.33-13.52,15.65-19.4,26.75-12.11c5.57,3.65,8.48,8.89,7.46,15.56c-3.5,22.82-7.04,45.64-10.93,68.4
	c-1.64,9.61-8.58,14.54-18.99,14.54c-95.8,0.01-191.6,0-287.4,0C309.55,383.66,307.75,383.66,305.18,383.66z M550.3,516.48
	c20.76-0.22,36.66-16.07,36.35-36.24c-0.3-19.42-16.59-34.97-36.53-34.87c-19.16,0.09-35.05,16.44-34.94,35.93
	C515.3,500.65,531.3,516.68,550.3,516.48z M339.34,516.48c20.15-0.05,36.54-16.37,36.54-36.38c0-19.03-16.67-34.83-36.64-34.73
	c-18.76,0.1-34.86,16.33-34.86,35.13C304.39,499.95,320.49,516.52,339.34,516.48z"/>
<path d="M571.57,82.81c0.01-8.93-0.06-17.85,0.02-26.78c0.1-10.86,7.63-18.47,18.02-18.38c9.81,0.09,17.47,8.13,17.52,18.63
	c0.08,17.85,0.15,35.7-0.06,53.55c-0.05,4.15,0.84,5.6,5.33,5.53c17.71-0.28,35.42-0.21,53.13-0.08
	c12.47,0.09,20.61,9.84,18.29,21.59c-1.35,6.85-7.43,12.87-14.47,13.76c-4.19,0.52-8.48,0.45-12.72,0.46
	c-15.02,0.05-30.04,0.12-45.05-0.05c-3.6-0.04-4.51,1.16-4.48,4.62c0.15,18.13,0.13,36.27,0.04,54.4
	c-0.04,8.32-5.8,15.65-13.46,17.58c-7.83,1.96-16.22-1.46-19.83-8.74c-1.44-2.92-2.14-6.49-2.18-9.77
	c-0.21-17.85-0.19-35.7-0.03-53.55c0.03-3.58-1.14-4.55-4.61-4.53c-17.99,0.15-35.99,0.16-53.98,0.02
	c-11.8-0.09-19.44-7.77-19.02-18.7c0.38-10.07,8-17.04,18.94-17.09c17.71-0.08,35.42-0.02,53.13-0.03c5.46,0,5.47-0.01,5.47-5.66
	C571.57,100.66,571.57,91.73,571.57,82.81z"/>
</svg>
