<?xml version="1.0" encoding="UTF-8" standalone="no"?>
<!DOCTYPE svg PUBLIC "-//W3C//DTD SVG 1.1//EN" "http://www.w3.org/Graphics/SVG/1.1/DTD/svg11.dtd">
<svg xmlns="http://www.w3.org/2000/svg" xmlns:xlink="http://www.w3.org/1999/xlink" version="1.1" width="566.929pt" height="566.929pt" viewBox="0 0 566.929 566.929">
<g enable-background="new">
<g id="Layer-1" data-name="Livello 1">
<clipPath id="cp0">
<path transform="matrix(1,0,0,-1,0,566.929)" d="M 0 566.929 L 566.929 566.929 L 566.929 0 L 0 0 Z "/>
</clipPath>
<g clip-path="url(#cp0)">
</g>
<g id="Layer-1" data-name="Livello 2">
</g>
<clipPath id="cp1">
<path transform="matrix(1,0,0,-1,0,566.929)" d="M 0 566.929 L 566.929 566.929 L 566.929 0 L 0 0 Z "/>
</clipPath>
<g clip-path="url(#cp1)">
<path transform="matrix(1,0,0,-1,325.4014,354.7489)" d="M 0 0 C 13.385 8.283 22.805 14.895 29.403 20.294 L 29.403 -29.4 C 27.203 -36.438 -2.107 -57.304 -37.254 -77.206 L -37.254 -21.449 C -30.251 -17.672 -15.056 -9.317 0 0 M 138.442 161.655 C 136.368 165.212 131.801 166.418 128.24 164.338 L -37.254 67.761 L -37.254 123.163 L 29.403 161.956 L 29.403 127.453 C 29.403 123.333 32.743 119.994 36.862 119.994 C 40.981 119.994 44.321 123.333 44.321 127.453 L 44.321 211.035 C 44.321 215.155 40.981 218.494 36.862 218.494 C 32.743 218.494 29.403 215.155 29.403 211.035 L 29.403 179.217 L -37.254 140.424 L -37.254 232.431 C -37.254 236.551 -40.594 239.89 -44.713 239.89 C -48.832 239.89 -52.172 236.551 -52.172 232.431 L -52.172 139.553 C -81.092 154.289 -110.762 170.945 -116.824 176.919 L -116.824 211.035 C -116.824 215.155 -120.164 218.494 -124.283 218.494 C -128.402 218.494 -131.742 215.155 -131.742 211.035 L -131.742 45.208 C -131.742 35.806 -124.033 30.494 -119.477 28.837 C -118.632 28.53 -117.764 28.384 -116.91 28.384 C -113.852 28.384 -110.966 30.252 -109.865 33.277 C -108.457 37.149 -110.401 41.409 -114.272 42.817 C -114.669 42.977 -116.824 44.095 -116.824 45.208 L -116.824 92.526 C -107.79 85.215 -93.286 75.094 -69.992 60.903 C -68.779 60.165 -67.44 59.813 -66.118 59.813 C -63.602 59.813 -61.145 61.087 -59.74 63.393 C -57.598 66.911 -58.711 71.5 -62.229 73.644 C -91.996 91.777 -113.184 107.622 -116.824 112.677 L -116.824 158.466 C -116.515 158.264 -116.223 158.069 -115.902 157.861 C -109.148 153.491 -99.785 148.032 -88.073 141.635 C -73.644 133.753 -59.085 126.332 -52.172 122.847 L -52.172 59.056 L -219.634 -38.67 C -223.192 -40.747 -224.393 -45.313 -222.316 -48.873 C -220.93 -51.248 -218.433 -52.573 -215.866 -52.573 C -214.59 -52.573 -213.296 -52.245 -212.114 -51.555 L -52.172 41.782 L -52.172 -3.17 L -80.411 15.339 C -83.856 17.598 -88.479 16.633 -90.737 13.188 C -92.996 9.744 -92.033 5.121 -88.587 2.862 L -52.172 -21.006 L -52.172 -76.333 C -81.981 -57.26 -112.154 -35.923 -116.824 -29.109 L -116.824 -13.634 C -116.824 -9.515 -120.164 -6.175 -124.283 -6.175 C -128.402 -6.175 -131.742 -9.515 -131.742 -13.634 L -131.742 -30.35 C -131.742 -34.895 -131.742 -40.551 -88.713 -70.021 C -68.914 -83.581 -48.852 -96.07 -48.653 -96.195 C -48.63 -96.21 -48.605 -96.219 -48.583 -96.232 C -48.565 -96.243 -48.549 -96.257 -48.532 -96.268 C -48.398 -96.348 -48.258 -96.406 -48.121 -96.477 C -47.966 -96.557 -47.813 -96.645 -47.655 -96.713 C -47.522 -96.77 -47.385 -96.81 -47.25 -96.858 C -47.063 -96.926 -46.877 -97.001 -46.688 -97.054 C -46.611 -97.074 -46.534 -97.083 -46.457 -97.102 C -45.883 -97.239 -45.301 -97.321 -44.721 -97.321 C -44.228 -97.321 -43.74 -97.259 -43.259 -97.163 C -43.137 -97.139 -43.013 -97.124 -42.891 -97.093 C -42.67 -97.038 -42.455 -96.962 -42.24 -96.886 C -42.164 -96.859 -42.086 -96.842 -42.011 -96.813 C -41.706 -96.694 -41.409 -96.556 -41.12 -96.397 C -40.215 -95.906 -19.936 -84.879 .093 -72.073 C 38.963 -47.222 44.321 -37.011 44.321 -29.681 L 44.321 79.978 C 44.321 84.098 40.981 87.437 36.862 87.437 C 32.743 87.437 29.403 84.098 29.403 79.978 L 29.403 41.59 C 28.826 40.194 24.266 32.359 -9.847 11.456 C -19.975 5.248 -29.993 -.435 -37.254 -4.449 L -37.254 50.487 L 135.761 151.454 C 139.318 153.53 140.519 158.098 138.442 161.655 " fill="#231f20"/>
</g>
<g id="Layer-1" data-name="Livello 3">
</g>
<clipPath id="cp2">
<path transform="matrix(1,0,0,-1,0,566.929)" d="M 0 566.929 L 566.929 566.929 L 566.929 0 L 0 0 Z "/>
</clipPath>
<g clip-path="url(#cp2)">
</g>
<g id="Layer-1" data-name="Livello 4">
</g>
<clipPath id="cp3">
<path transform="matrix(1,0,0,-1,0,566.929)" d="M 0 566.929 L 566.929 566.929 L 566.929 0 L 0 0 Z "/>
</clipPath>
<g clip-path="url(#cp3)">
</g>
<g id="Layer-1" data-name="Livello 5">
</g>
<clipPath id="cp4">
<path transform="matrix(1,0,0,-1,0,566.929)" d="M 0 566.929 L 566.929 566.929 L 566.929 0 L 0 0 Z "/>
</clipPath>
<g clip-path="url(#cp4)">
</g>
<g id="Layer-1" data-name="Livello 6">
</g>
<clipPath id="cp5">
<path transform="matrix(1,0,0,-1,0,566.929)" d="M 0 566.929 L 566.929 566.929 L 566.929 0 L 0 0 Z "/>
</clipPath>
<g clip-path="url(#cp5)">
</g>
<g id="Layer-1" data-name="Livello 7">
</g>
<clipPath id="cp6">
<path transform="matrix(1,0,0,-1,0,566.929)" d="M 0 566.929 L 566.929 566.929 L 566.929 0 L 0 0 Z "/>
</clipPath>
<g clip-path="url(#cp6)">
</g>
</g>
</g>
</svg>
