<?xml version="1.0" encoding="UTF-8" standalone="no"?>
<svg
   xmlns:dc="http://purl.org/dc/elements/1.1/"
   xmlns:cc="http://creativecommons.org/ns#"
   xmlns:rdf="http://www.w3.org/1999/02/22-rdf-syntax-ns#"
   xmlns:svg="http://www.w3.org/2000/svg"
   xmlns="http://www.w3.org/2000/svg"
   viewBox="0 0 2560 1440"
   height="1440"
   width="2560"
   xml:space="preserve"
   id="svg2"
   version="1.1"><metadata
     id="metadata8"><rdf:RDF><cc:Work
         rdf:about=""><dc:format>image/svg+xml</dc:format><dc:type
           rdf:resource="http://purl.org/dc/dcmitype/StillImage" /></cc:Work></rdf:RDF></metadata><defs
     id="defs6"><clipPath
       id="clipPath18"
       clipPathUnits="userSpaceOnUse"><path
         id="path16"
         d="M 0,1080 H 1920 V 0 H 0 Z" /></clipPath></defs><g
     transform="matrix(1.3333333,0,0,-1.3333333,0,1440)"
     id="g10"><g
       id="g12"><g
         clip-path="url(#clipPath18)"
         id="g14"><g
           transform="translate(679.0639,613.7382)"
           id="g20"><path
             id="path22"
             style="fill:none;stroke:#000000;stroke-width:28;stroke-linecap:butt;stroke-linejoin:miter;stroke-miterlimit:10;stroke-dasharray:none;stroke-opacity:1"
             d="m 0,0 c 0,-18.825 -0.02,-37.65 0.009,-56.475 0.013,-8.218 3.09,-14.914 9.022,-20.821 51.334,-51.115 102.507,-102.391 153.747,-153.599 10.74,-10.734 21.697,-10.721 32.549,0.107 30.06,29.996 60.066,60.045 90.096,90.071 9.304,9.302 18.695,18.519 27.9,27.918 9.123,9.315 9.118,20.809 -0.09,30.035 -51.995,52.099 -104.068,104.118 -156.049,156.229 -5.428,5.441 -11.972,7.686 -19.344,7.718 -29.988,0.131 -59.976,0.123 -89.964,0.161 C 40.379,81.353 32.881,81.4 25.385,81.323 10.161,81.168 -0.014,71.144 -0.112,55.979 -0.234,37.32 -0.141,18.66 -0.141,0 -0.094,0 -0.047,0 0,0 Z" /></g><g
           transform="translate(755.2454,632.39)"
           id="g24"><path
             id="path26"
             style="fill:#000000;fill-opacity:1;fill-rule:nonzero;stroke:none"
             d="m 0,0 c 0.046,-7.601 -5.851,-13.567 -13.495,-13.656 -7.664,-0.088 -13.743,5.715 -13.891,13.262 -0.156,7.96 5.738,14.144 13.475,14.138 C -5.882,13.738 -0.048,7.974 0,0 m -13.941,-27.611 c 15.224,-0.307 27.837,11.902 28.051,27.15 0.215,15.33 -11.775,27.846 -27.058,28.244 -15.306,0.4 -28.188,-11.715 -28.417,-26.724 -0.248,-16.251 11.321,-28.346 27.424,-28.67" /></g><g
           transform="translate(755.2454,632.39)"
           id="g28"><path
             id="path30"
             style="fill:none;stroke:#000000;stroke-width:10;stroke-linecap:butt;stroke-linejoin:miter;stroke-miterlimit:10;stroke-dasharray:none;stroke-opacity:1"
             d="m 0,0 c 0.046,-7.601 -5.851,-13.567 -13.495,-13.656 -7.664,-0.088 -13.743,5.715 -13.891,13.262 -0.156,7.96 5.738,14.144 13.475,14.138 C -5.882,13.738 -0.048,7.974 0,0 Z m -13.941,-27.611 c 15.224,-0.307 27.837,11.902 28.051,27.15 0.215,15.33 -11.775,27.846 -27.058,28.244 -15.306,0.4 -28.188,-11.715 -28.417,-26.724 -0.248,-16.251 11.321,-28.346 27.424,-28.67 z" /></g></g></g></g></svg>