<?xml version="1.0" encoding="utf-8"?>
<!-- Generator: Adobe Illustrator 25.4.1, SVG Export Plug-In . SVG Version: 6.00 Build 0)  -->
<svg version="1.1" id="Livello_1" xmlns="http://www.w3.org/2000/svg" xmlns:xlink="http://www.w3.org/1999/xlink" x="0px" y="0px"
	 viewBox="0 0 2000 2000" style="enable-background:new 0 0 2000 2000;" xml:space="preserve">
<style type="text/css">
	.st0{fill:#1D1D1B;}
</style>
<g>
	<path class="st0" d="M941.48,555.53C741.92,580.93,580.81,742.1,555.5,941.67c-37.12,292.74,210.13,539.98,502.84,502.82
		c199.56-25.33,360.71-186.42,386.14-385.97C1481.79,765.67,1234.36,518.24,941.48,555.53z M948.88,1297.62
		c-124.95-20.62-225.74-121.35-246.46-246.29c-34.23-206.34,142.53-383.12,348.9-348.92c124.95,20.7,225.7,121.51,246.3,246.48
		C1331.63,1155.11,1155.07,1331.65,948.88,1297.62z"/>
	<path class="st0" d="M1000,487.34c36.54,0,66.17-29.62,66.17-66.17V66.17C1066.17,29.62,1036.54,0,1000,0
		c-36.54,0-66.17,29.62-66.17,66.17v355.01C933.83,457.72,963.46,487.34,1000,487.34z"/>
	<path class="st0" d="M1933.83,933.83h-355.01c-36.54,0-66.17,29.62-66.17,66.17c0,36.54,29.63,66.17,66.17,66.17h355.01
		c36.54,0,66.17-29.62,66.17-66.17C2000,963.45,1970.38,933.83,1933.83,933.83z"/>
	<path class="st0" d="M1000,1512.66c-36.54,0-66.17,29.62-66.17,66.17v355.01c0,36.54,29.62,66.17,66.17,66.17
		c36.54,0,66.17-29.63,66.17-66.17v-355.01C1066.17,1542.28,1036.54,1512.66,1000,1512.66z"/>
	<path class="st0" d="M487.35,1000c0-36.55-29.63-66.17-66.17-66.17H66.17C29.62,933.83,0,963.45,0,1000
		c0,36.54,29.62,66.17,66.17,66.17h355.01C457.72,1066.17,487.35,1036.54,487.35,1000z"/>
	<path class="st0" d="M1452.65,633.23l248.66-253.38c25.6-26.08,25.2-67.97-0.88-93.57c-26.08-25.6-67.97-25.2-93.57,0.88
		L1358.2,540.54c-25.6,26.08-25.2,67.97,0.88,93.57C1385.16,659.7,1427.05,659.31,1452.65,633.23z"/>
	<path class="st0" d="M1452.65,1366.77c-25.6-26.08-67.49-26.48-93.57-0.88c-26.08,25.6-26.47,67.49-0.88,93.57l248.66,253.37
		c25.6,26.08,67.49,26.48,93.57,0.88c26.08-25.6,26.48-67.49,0.88-93.57L1452.65,1366.77z"/>
	<path class="st0" d="M547.35,1366.77l-248.66,253.37c-25.6,26.08-25.2,67.97,0.88,93.57c26.08,25.6,67.97,25.2,93.57-0.88
		l248.66-253.37c25.6-26.08,25.2-67.97-0.88-93.57C614.84,1340.29,572.95,1340.68,547.35,1366.77z"/>
	<path class="st0" d="M547.35,633.23c25.6,26.08,67.49,26.47,93.57,0.88c26.08-25.6,26.47-67.49,0.88-93.57L393.14,287.16
		c-25.6-26.08-67.49-26.47-93.57-0.88c-26.08,25.6-26.48,67.49-0.88,93.57L547.35,633.23z"/>
</g>
</svg>
